<svg width="541" height="361" viewBox="0 0 541 361" fill="none" xmlns="http://www.w3.org/2000/svg">
<path d="M2 317.716C2 317.716 376.337 328.281 485.518 288.772C594.7 249.263 522.952 200.094 417.93 155.937C312.907 111.78 2 91.638 2 91.638" stroke="url(#paint0_linear_138_4)" stroke-width="0.823355"/>
<path d="M2 322.868C2 322.868 376.337 336.037 485.518 296.528C594.7 257.019 522.952 207.85 417.93 163.693C312.907 119.536 2 99.3944 2 99.3944" stroke="url(#paint1_linear_138_4)" stroke-width="0.823355"/>
<path d="M2 330.624C2 330.624 376.337 343.794 485.518 304.285C594.7 264.776 522.952 215.607 417.93 171.45C312.907 127.292 2 107.151 2 107.151" stroke="url(#paint2_linear_138_4)" stroke-width="0.823355"/>
<path d="M2 338.38C2 338.38 376.337 351.55 485.518 312.041C594.7 272.532 522.952 223.363 417.93 179.206C312.907 135.049 2 114.907 2 114.907" stroke="url(#paint3_linear_138_4)" stroke-width="0.823355"/>
<path d="M2 346.137C2 346.137 376.337 359.306 485.518 319.797C594.7 280.288 522.952 231.119 417.93 186.962C312.907 142.805 2 122.663 2 122.663" stroke="url(#paint4_linear_138_4)" stroke-width="0.823355"/>
<path d="M2 353.893C2 353.893 376.337 367.062 485.518 327.554C594.7 288.045 522.952 238.875 417.93 194.718C312.907 150.561 2 130.42 2 130.42" stroke="url(#paint5_linear_138_4)" stroke-width="0.823355"/>
<path d="M2.00098 311.261C2.00098 311.261 372.178 320.557 481.36 281.048C590.541 241.54 527.114 194.284 412.731 147.803C298.349 101.322 2.00098 81.9545 2.00098 81.9545" stroke="url(#paint6_linear_138_4)" stroke-width="0.823355"/>
<path d="M2.00098 303.902C2.00098 303.902 372.178 313.198 481.36 273.689C590.541 234.18 527.114 186.924 412.731 140.443C298.349 93.9621 2.00098 74.595 2.00098 74.595" stroke="url(#paint7_linear_138_4)" stroke-width="0.823355"/>
<path d="M2.00098 296.542C2.00098 296.542 372.178 305.838 481.36 266.329C590.541 226.821 527.114 179.565 412.731 133.084C298.349 86.6026 2.00098 67.2355 2.00098 67.2355" stroke="url(#paint8_linear_138_4)" stroke-width="0.823355"/>
<path d="M2.00098 289.183C2.00098 289.183 372.178 298.479 481.36 258.97C590.541 219.461 527.114 172.205 412.731 125.724C298.349 79.2432 2.00098 59.876 2.00098 59.876" stroke="url(#paint9_linear_138_4)" stroke-width="0.823355"/>
<path d="M2.00098 281.823C2.00098 281.823 372.178 291.119 481.36 251.61C590.541 212.102 527.114 164.846 412.731 118.365C298.349 71.8837 2.00098 52.5166 2.00098 52.5166" stroke="url(#paint10_linear_138_4)" stroke-width="0.823355"/>
<path d="M2.00098 274.464C2.00098 274.464 372.178 283.76 481.36 244.251C590.541 204.742 527.114 157.486 412.731 111.005C298.349 64.5242 2.00098 45.157 2.00098 45.157" stroke="url(#paint11_linear_138_4)" stroke-width="0.823355"/>
<path d="M2.00098 267.104C2.00098 267.104 372.178 276.4 481.36 236.891C590.541 197.383 527.114 150.127 412.731 103.646C298.349 57.1647 2.00098 37.7975 2.00098 37.7975" stroke="url(#paint12_linear_138_4)" stroke-width="0.823355"/>
<path d="M2.00098 259.745C2.00098 259.745 372.178 269.041 481.36 229.532C590.541 190.023 527.114 142.767 412.731 96.2863C298.349 49.8052 2.00098 30.4381 2.00098 30.4381" stroke="url(#paint13_linear_138_4)" stroke-width="0.823355"/>
<path d="M2.00098 252.385C2.00098 252.385 372.178 261.681 481.36 222.172C590.541 182.664 527.114 135.408 412.731 88.9268C298.349 42.4457 2.00098 23.0786 2.00098 23.0786" stroke="url(#paint14_linear_138_4)" stroke-width="0.823355"/>
<path d="M2.00098 245.026C2.00098 245.026 372.178 254.322 481.36 214.813C590.541 175.304 527.114 128.048 412.731 81.5673C298.349 35.0862 2.00098 15.7191 2.00098 15.7191" stroke="url(#paint15_linear_138_4)" stroke-width="0.823355"/>
<path d="M2.00098 237.666C2.00098 237.666 372.178 246.962 481.36 207.453C590.541 167.945 527.114 120.689 412.731 74.2078C298.349 27.7267 2.00098 8.35956 2.00098 8.35956" stroke="url(#paint16_linear_138_4)" stroke-width="0.823355"/>
<path d="M2.00098 230.307C2.00098 230.307 372.178 239.603 481.36 200.094C590.541 160.585 527.114 113.329 412.731 66.8482C298.349 20.3671 2.00098 0.999941 2.00098 0.999941" stroke="url(#paint17_linear_138_4)" stroke-width="0.823355"/>
<path d="M2.00098 230.307C2.00098 230.307 372.178 239.603 481.36 200.094C590.541 160.585 527.114 113.329 412.731 66.8482C298.349 20.3671 2.00098 0.999941 2.00098 0.999941" stroke="url(#paint18_linear_138_4)" stroke-width="0.823355"/>
<path d="M539 321.716C539 321.716 164.663 332.281 55.4819 292.772C-53.6995 253.263 18.0483 204.094 123.07 159.937C228.093 115.78 539 95.638 539 95.638" stroke="url(#paint19_linear_138_4)" stroke-width="0.823355"/>
<path d="M539 326.868C539 326.868 164.663 340.037 55.4819 300.528C-53.6995 261.019 18.0483 211.85 123.07 167.693C228.093 123.536 539 103.394 539 103.394" stroke="url(#paint20_linear_138_4)" stroke-width="0.823355"/>
<path d="M539 334.624C539 334.624 164.663 347.794 55.4819 308.285C-53.6995 268.776 18.0483 219.607 123.07 175.45C228.093 131.292 539 111.151 539 111.151" stroke="url(#paint21_linear_138_4)" stroke-width="0.823355"/>
<path d="M539 342.38C539 342.38 164.663 355.55 55.4819 316.041C-53.6995 276.532 18.0483 227.363 123.07 183.206C228.093 139.049 539 118.907 539 118.907" stroke="url(#paint22_linear_138_4)" stroke-width="0.823355"/>
<path d="M539 350.137C539 350.137 164.663 363.306 55.4819 323.797C-53.6995 284.288 18.0483 235.119 123.07 190.962C228.093 146.805 539 126.663 539 126.663" stroke="url(#paint23_linear_138_4)" stroke-width="0.823355"/>
<path d="M539 357.893C539 357.893 164.663 371.062 55.4819 331.554C-53.6995 292.045 18.0483 242.875 123.07 198.718C228.093 154.561 539 134.42 539 134.42" stroke="url(#paint24_linear_138_4)" stroke-width="0.823355"/>
<path d="M538.999 315.261C538.999 315.261 168.822 324.557 59.6403 285.048C-49.5412 245.54 13.8865 198.284 128.269 151.803C242.651 105.322 538.999 85.9545 538.999 85.9545" stroke="url(#paint25_linear_138_4)" stroke-width="0.823355"/>
<path d="M538.999 307.902C538.999 307.902 168.822 317.198 59.6403 277.689C-49.5412 238.18 13.8865 190.924 128.269 144.443C242.651 97.9621 538.999 78.595 538.999 78.595" stroke="url(#paint26_linear_138_4)" stroke-width="0.823355"/>
<path d="M538.999 300.542C538.999 300.542 168.822 309.838 59.6403 270.329C-49.5412 230.821 13.8865 183.565 128.269 137.084C242.651 90.6026 538.999 71.2355 538.999 71.2355" stroke="url(#paint27_linear_138_4)" stroke-width="0.823355"/>
<path d="M538.999 293.183C538.999 293.183 168.822 302.479 59.6403 262.97C-49.5412 223.461 13.8865 176.205 128.269 129.724C242.651 83.2432 538.999 63.876 538.999 63.876" stroke="url(#paint28_linear_138_4)" stroke-width="0.823355"/>
<path d="M538.999 285.823C538.999 285.823 168.822 295.119 59.6403 255.61C-49.5412 216.102 13.8865 168.846 128.269 122.365C242.651 75.8837 538.999 56.5166 538.999 56.5166" stroke="url(#paint29_linear_138_4)" stroke-width="0.823355"/>
<path d="M538.999 278.464C538.999 278.464 168.822 287.76 59.6403 248.251C-49.5412 208.742 13.8865 161.486 128.269 115.005C242.651 68.5242 538.999 49.157 538.999 49.157" stroke="url(#paint30_linear_138_4)" stroke-width="0.823355"/>
<path d="M538.999 271.104C538.999 271.104 168.822 280.4 59.6403 240.891C-49.5412 201.383 13.8865 154.127 128.269 107.646C242.651 61.1647 538.999 41.7975 538.999 41.7975" stroke="url(#paint31_linear_138_4)" stroke-width="0.823355"/>
<path d="M538.999 263.745C538.999 263.745 168.822 273.041 59.6403 233.532C-49.5412 194.023 13.8865 146.767 128.269 100.286C242.651 53.8052 538.999 34.4381 538.999 34.4381" stroke="url(#paint32_linear_138_4)" stroke-width="0.823355"/>
<path d="M538.999 256.385C538.999 256.385 168.822 265.681 59.6403 226.172C-49.5412 186.664 13.8865 139.408 128.269 92.9268C242.651 46.4457 538.999 27.0786 538.999 27.0786" stroke="url(#paint33_linear_138_4)" stroke-width="0.823355"/>
<path d="M538.999 249.026C538.999 249.026 168.822 258.322 59.6403 218.813C-49.5412 179.304 13.8865 132.048 128.269 85.5673C242.651 39.0862 538.999 19.7191 538.999 19.7191" stroke="url(#paint34_linear_138_4)" stroke-width="0.823355"/>
<path d="M538.999 241.666C538.999 241.666 168.822 250.962 59.6403 211.453C-49.5412 171.945 13.8865 124.689 128.269 78.2078C242.651 31.7267 538.999 12.3596 538.999 12.3596" stroke="url(#paint35_linear_138_4)" stroke-width="0.823355"/>
<path d="M538.999 234.307C538.999 234.307 168.822 243.603 59.6403 204.094C-49.5412 164.585 13.8865 117.329 128.269 70.8482C242.651 24.3671 538.999 4.99994 538.999 4.99994" stroke="url(#paint36_linear_138_4)" stroke-width="0.823355"/>
<path d="M538.999 234.307C538.999 234.307 168.822 243.603 59.6403 204.094C-49.5412 164.585 13.8865 117.329 128.269 70.8482C242.651 24.3671 538.999 4.99994 538.999 4.99994" stroke="url(#paint37_linear_138_4)" stroke-width="0.823355"/>
<defs>
<linearGradient id="paint0_linear_138_4" x1="271" y1="318.999" x2="271" y2="91.638" gradientUnits="userSpaceOnUse">
<stop stop-color="#0092FF"/>
<stop offset="0.487847" stop-color="#FF0072" stop-opacity="0"/>
<stop offset="1" stop-color="#FFCC00"/>
</linearGradient>
<linearGradient id="paint1_linear_138_4" x1="271" y1="324.975" x2="271" y2="99.3943" gradientUnits="userSpaceOnUse">
<stop stop-color="#0092FF"/>
<stop offset="0.487847" stop-color="#FF0072" stop-opacity="0"/>
<stop offset="1" stop-color="#FFCC00"/>
</linearGradient>
<linearGradient id="paint2_linear_138_4" x1="271" y1="332.731" x2="271" y2="107.151" gradientUnits="userSpaceOnUse">
<stop stop-color="#0092FF"/>
<stop offset="0.487847" stop-color="#FF0072" stop-opacity="0"/>
<stop offset="1" stop-color="#FFCC00"/>
</linearGradient>
<linearGradient id="paint3_linear_138_4" x1="271" y1="340.487" x2="271" y2="114.907" gradientUnits="userSpaceOnUse">
<stop stop-color="#0092FF"/>
<stop offset="0.487847" stop-color="#FF0072" stop-opacity="0"/>
<stop offset="1" stop-color="#FFCC00"/>
</linearGradient>
<linearGradient id="paint4_linear_138_4" x1="271" y1="348.244" x2="271" y2="122.663" gradientUnits="userSpaceOnUse">
<stop stop-color="#0092FF"/>
<stop offset="0.487847" stop-color="#FF0072" stop-opacity="0"/>
<stop offset="1" stop-color="#FFCC00"/>
</linearGradient>
<linearGradient id="paint5_linear_138_4" x1="271" y1="356" x2="271" y2="130.42" gradientUnits="userSpaceOnUse">
<stop stop-color="#0092FF"/>
<stop offset="0.487847" stop-color="#FF0072" stop-opacity="0"/>
<stop offset="1" stop-color="#FFCC00"/>
</linearGradient>
<linearGradient id="paint6_linear_138_4" x1="269.922" y1="312.213" x2="269.922" y2="81.9545" gradientUnits="userSpaceOnUse">
<stop stop-color="#0092FF"/>
<stop offset="0.487847" stop-color="#FF0072" stop-opacity="0"/>
<stop offset="1" stop-color="#FFCC00"/>
</linearGradient>
<linearGradient id="paint7_linear_138_4" x1="269.922" y1="304.854" x2="269.922" y2="74.595" gradientUnits="userSpaceOnUse">
<stop stop-color="#0092FF"/>
<stop offset="0.487847" stop-color="#FF0072" stop-opacity="0"/>
<stop offset="1" stop-color="#FFCC00"/>
</linearGradient>
<linearGradient id="paint8_linear_138_4" x1="269.922" y1="297.494" x2="269.922" y2="67.2355" gradientUnits="userSpaceOnUse">
<stop stop-color="#0092FF"/>
<stop offset="0.487847" stop-color="#FF0072" stop-opacity="0"/>
<stop offset="1" stop-color="#FFCC00"/>
</linearGradient>
<linearGradient id="paint9_linear_138_4" x1="269.922" y1="290.135" x2="269.922" y2="59.876" gradientUnits="userSpaceOnUse">
<stop stop-color="#0092FF"/>
<stop offset="0.487847" stop-color="#FF0072" stop-opacity="0"/>
<stop offset="1" stop-color="#FFCC00"/>
</linearGradient>
<linearGradient id="paint10_linear_138_4" x1="269.922" y1="282.775" x2="269.922" y2="52.5165" gradientUnits="userSpaceOnUse">
<stop stop-color="#0092FF"/>
<stop offset="0.487847" stop-color="#FF0072" stop-opacity="0"/>
<stop offset="1" stop-color="#FFCC00"/>
</linearGradient>
<linearGradient id="paint11_linear_138_4" x1="269.922" y1="275.416" x2="269.922" y2="45.157" gradientUnits="userSpaceOnUse">
<stop stop-color="#0092FF"/>
<stop offset="0.487847" stop-color="#FF0072" stop-opacity="0"/>
<stop offset="1" stop-color="#FFCC00"/>
</linearGradient>
<linearGradient id="paint12_linear_138_4" x1="269.922" y1="268.056" x2="269.922" y2="37.7975" gradientUnits="userSpaceOnUse">
<stop stop-color="#0092FF"/>
<stop offset="0.487847" stop-color="#FF0072" stop-opacity="0"/>
<stop offset="1" stop-color="#FFCC00"/>
</linearGradient>
<linearGradient id="paint13_linear_138_4" x1="269.922" y1="260.697" x2="269.922" y2="30.438" gradientUnits="userSpaceOnUse">
<stop stop-color="#0092FF"/>
<stop offset="0.487847" stop-color="#FF0072" stop-opacity="0"/>
<stop offset="1" stop-color="#FFCC00"/>
</linearGradient>
<linearGradient id="paint14_linear_138_4" x1="269.922" y1="253.337" x2="269.922" y2="23.0786" gradientUnits="userSpaceOnUse">
<stop stop-color="#0092FF"/>
<stop offset="0.487847" stop-color="#FF0072" stop-opacity="0"/>
<stop offset="1" stop-color="#FFCC00"/>
</linearGradient>
<linearGradient id="paint15_linear_138_4" x1="269.922" y1="245.978" x2="269.922" y2="15.7191" gradientUnits="userSpaceOnUse">
<stop stop-color="#0092FF"/>
<stop offset="0.487847" stop-color="#FF0072" stop-opacity="0"/>
<stop offset="1" stop-color="#FFCC00"/>
</linearGradient>
<linearGradient id="paint16_linear_138_4" x1="269.922" y1="238.618" x2="269.922" y2="8.35956" gradientUnits="userSpaceOnUse">
<stop stop-color="#0092FF"/>
<stop offset="0.487847" stop-color="#FF0072" stop-opacity="0"/>
<stop offset="1" stop-color="#FFCC00"/>
</linearGradient>
<linearGradient id="paint17_linear_138_4" x1="269.922" y1="231.259" x2="269.922" y2="0.999939" gradientUnits="userSpaceOnUse">
<stop stop-color="#0092FF"/>
<stop offset="0.487847" stop-color="#FF0072" stop-opacity="0"/>
<stop offset="1" stop-color="#FFCC00"/>
</linearGradient>
<linearGradient id="paint18_linear_138_4" x1="269.922" y1="231.259" x2="269.922" y2="0.999939" gradientUnits="userSpaceOnUse">
<stop stop-color="#0092FF"/>
<stop offset="0.487847" stop-color="#FF0072" stop-opacity="0"/>
<stop offset="1" stop-color="#FFCC00"/>
</linearGradient>
<linearGradient id="paint19_linear_138_4" x1="270" y1="322.999" x2="270" y2="95.638" gradientUnits="userSpaceOnUse">
<stop stop-color="#0092FF"/>
<stop offset="0.487847" stop-color="#FF0072" stop-opacity="0"/>
<stop offset="1" stop-color="#FFCC00"/>
</linearGradient>
<linearGradient id="paint20_linear_138_4" x1="270" y1="328.975" x2="270" y2="103.394" gradientUnits="userSpaceOnUse">
<stop stop-color="#0092FF"/>
<stop offset="0.487847" stop-color="#FF0072" stop-opacity="0"/>
<stop offset="1" stop-color="#FFCC00"/>
</linearGradient>
<linearGradient id="paint21_linear_138_4" x1="270" y1="336.731" x2="270" y2="111.151" gradientUnits="userSpaceOnUse">
<stop stop-color="#0092FF"/>
<stop offset="0.487847" stop-color="#FF0072" stop-opacity="0"/>
<stop offset="1" stop-color="#FFCC00"/>
</linearGradient>
<linearGradient id="paint22_linear_138_4" x1="270" y1="344.487" x2="270" y2="118.907" gradientUnits="userSpaceOnUse">
<stop stop-color="#0092FF"/>
<stop offset="0.487847" stop-color="#FF0072" stop-opacity="0"/>
<stop offset="1" stop-color="#FFCC00"/>
</linearGradient>
<linearGradient id="paint23_linear_138_4" x1="270" y1="352.244" x2="270" y2="126.663" gradientUnits="userSpaceOnUse">
<stop stop-color="#0092FF"/>
<stop offset="0.487847" stop-color="#FF0072" stop-opacity="0"/>
<stop offset="1" stop-color="#FFCC00"/>
</linearGradient>
<linearGradient id="paint24_linear_138_4" x1="270" y1="360" x2="270" y2="134.42" gradientUnits="userSpaceOnUse">
<stop stop-color="#0092FF"/>
<stop offset="0.487847" stop-color="#FF0072" stop-opacity="0"/>
<stop offset="1" stop-color="#FFCC00"/>
</linearGradient>
<linearGradient id="paint25_linear_138_4" x1="271.078" y1="316.213" x2="271.078" y2="85.9545" gradientUnits="userSpaceOnUse">
<stop stop-color="#0092FF"/>
<stop offset="0.487847" stop-color="#FF0072" stop-opacity="0"/>
<stop offset="1" stop-color="#FFCC00"/>
</linearGradient>
<linearGradient id="paint26_linear_138_4" x1="271.078" y1="308.854" x2="271.078" y2="78.595" gradientUnits="userSpaceOnUse">
<stop stop-color="#0092FF"/>
<stop offset="0.487847" stop-color="#FF0072" stop-opacity="0"/>
<stop offset="1" stop-color="#FFCC00"/>
</linearGradient>
<linearGradient id="paint27_linear_138_4" x1="271.078" y1="301.494" x2="271.078" y2="71.2355" gradientUnits="userSpaceOnUse">
<stop stop-color="#0092FF"/>
<stop offset="0.487847" stop-color="#FF0072" stop-opacity="0"/>
<stop offset="1" stop-color="#FFCC00"/>
</linearGradient>
<linearGradient id="paint28_linear_138_4" x1="271.078" y1="294.135" x2="271.078" y2="63.876" gradientUnits="userSpaceOnUse">
<stop stop-color="#0092FF"/>
<stop offset="0.487847" stop-color="#FF0072" stop-opacity="0"/>
<stop offset="1" stop-color="#FFCC00"/>
</linearGradient>
<linearGradient id="paint29_linear_138_4" x1="271.078" y1="286.775" x2="271.078" y2="56.5165" gradientUnits="userSpaceOnUse">
<stop stop-color="#0092FF"/>
<stop offset="0.487847" stop-color="#FF0072" stop-opacity="0"/>
<stop offset="1" stop-color="#FFCC00"/>
</linearGradient>
<linearGradient id="paint30_linear_138_4" x1="271.078" y1="279.416" x2="271.078" y2="49.157" gradientUnits="userSpaceOnUse">
<stop stop-color="#0092FF"/>
<stop offset="0.487847" stop-color="#FF0072" stop-opacity="0"/>
<stop offset="1" stop-color="#FFCC00"/>
</linearGradient>
<linearGradient id="paint31_linear_138_4" x1="271.078" y1="272.056" x2="271.078" y2="41.7975" gradientUnits="userSpaceOnUse">
<stop stop-color="#0092FF"/>
<stop offset="0.487847" stop-color="#FF0072" stop-opacity="0"/>
<stop offset="1" stop-color="#FFCC00"/>
</linearGradient>
<linearGradient id="paint32_linear_138_4" x1="271.078" y1="264.697" x2="271.078" y2="34.438" gradientUnits="userSpaceOnUse">
<stop stop-color="#0092FF"/>
<stop offset="0.487847" stop-color="#FF0072" stop-opacity="0"/>
<stop offset="1" stop-color="#FFCC00"/>
</linearGradient>
<linearGradient id="paint33_linear_138_4" x1="271.078" y1="257.337" x2="271.078" y2="27.0786" gradientUnits="userSpaceOnUse">
<stop stop-color="#0092FF"/>
<stop offset="0.487847" stop-color="#FF0072" stop-opacity="0"/>
<stop offset="1" stop-color="#FFCC00"/>
</linearGradient>
<linearGradient id="paint34_linear_138_4" x1="271.078" y1="249.978" x2="271.078" y2="19.7191" gradientUnits="userSpaceOnUse">
<stop stop-color="#0092FF"/>
<stop offset="0.487847" stop-color="#FF0072" stop-opacity="0"/>
<stop offset="1" stop-color="#FFCC00"/>
</linearGradient>
<linearGradient id="paint35_linear_138_4" x1="271.078" y1="242.618" x2="271.078" y2="12.3596" gradientUnits="userSpaceOnUse">
<stop stop-color="#0092FF"/>
<stop offset="0.487847" stop-color="#FF0072" stop-opacity="0"/>
<stop offset="1" stop-color="#FFCC00"/>
</linearGradient>
<linearGradient id="paint36_linear_138_4" x1="271.078" y1="235.259" x2="271.078" y2="4.99994" gradientUnits="userSpaceOnUse">
<stop stop-color="#0092FF"/>
<stop offset="0.487847" stop-color="#FF0072" stop-opacity="0"/>
<stop offset="1" stop-color="#FFCC00"/>
</linearGradient>
<linearGradient id="paint37_linear_138_4" x1="271.078" y1="235.259" x2="271.078" y2="4.99994" gradientUnits="userSpaceOnUse">
<stop stop-color="#0092FF"/>
<stop offset="0.487847" stop-color="#FF0072" stop-opacity="0"/>
<stop offset="1" stop-color="#FFCC00"/>
</linearGradient>
</defs>
</svg>
