<svg width="538" height="400" viewBox="0 0 538 400" fill="none" xmlns="http://www.w3.org/2000/svg">
<path d="M537.652 351.514H0.826172V351.782H537.652V351.514Z" fill="#E0E0E0"/>
<path d="M118.305 364.387H56.2803V364.655H118.305V364.387Z" fill="#E0E0E0"/>
<path d="M253.844 358.557H225.585V358.825H253.844V358.557Z" fill="#E0E0E0"/>
<path d="M319.229 358.417H264.172V358.686H319.229V358.417Z" fill="#E0E0E0"/>
<path d="M424.028 361.638H410.618V361.907H424.028V361.638Z" fill="#E0E0E0"/>
<path d="M364.312 361.638H310.822V361.907H364.312V361.638Z" fill="#E0E0E0"/>
<path d="M139.327 364.387H128.698V364.655H139.327V364.387Z" fill="#E0E0E0"/>
<path d="M479.225 361.638H432.789V361.907H479.225V361.638Z" fill="#E0E0E0"/>
<path d="M255.282 303.629H47.9704C46.3463 303.626 44.7898 302.979 43.6424 301.83C42.495 300.68 41.8506 299.122 41.8506 297.498V6.07687C41.8647 4.46213 42.5154 2.91816 43.6612 1.78035C44.8071 0.642536 46.3556 0.00276615 47.9704 0H255.282C256.908 0 258.467 0.645896 259.617 1.7956C260.767 2.9453 261.413 4.50463 261.413 6.13056V297.498C261.413 299.124 260.767 300.684 259.617 301.833C258.467 302.983 256.908 303.629 255.282 303.629ZM47.9704 0.214731C46.4175 0.217575 44.9292 0.836445 43.8322 1.9355C42.7351 3.03456 42.119 4.52399 42.119 6.07687V297.498C42.119 299.051 42.7351 300.541 43.8322 301.64C44.9292 302.739 46.4175 303.358 47.9704 303.361H255.282C256.836 303.358 258.325 302.739 259.424 301.64C260.523 300.542 261.141 299.052 261.144 297.498V6.07687C261.141 4.52301 260.523 3.0336 259.424 1.93485C258.325 0.836097 256.836 0.217569 255.282 0.214731H47.9704Z" fill="#E0E0E0"/>
<path d="M487.523 303.629H280.201C278.576 303.626 277.018 302.979 275.869 301.83C274.72 300.681 274.073 299.123 274.07 297.498V6.07687C274.087 4.46115 274.74 2.9172 275.888 1.77968C277.035 0.642161 278.585 0.00273598 280.201 0H487.523C489.136 0.00558782 490.682 0.646606 491.825 1.78412C492.969 2.92163 493.618 4.46398 493.632 6.07687V297.498C493.632 299.121 492.989 300.677 491.844 301.826C490.699 302.975 489.145 303.623 487.523 303.629ZM280.201 0.214731C278.647 0.217569 277.158 0.836097 276.059 1.93485C274.96 3.0336 274.342 4.52301 274.339 6.07687V297.498C274.342 299.052 274.96 300.542 276.059 301.64C277.158 302.739 278.647 303.358 280.201 303.361H487.523C489.077 303.358 490.566 302.739 491.665 301.64C492.764 300.542 493.382 299.052 493.385 297.498V6.07687C493.382 4.52301 492.764 3.0336 491.665 1.93485C490.566 0.836097 489.077 0.217569 487.523 0.214731H280.201Z" fill="#E0E0E0"/>
<path d="M83.0896 87.8355C78.4085 77.7217 82.1233 70.5282 93.5577 70.5282C100.74 70.5282 109.663 73.3626 118.252 77.9686C119.24 75.3382 121.988 73.7706 126.422 73.7706C134.228 73.7706 144.996 78.6343 153.435 85.5056C156.038 83.7707 159.101 82.858 162.229 82.8859C169.744 82.5746 178.741 85.3768 186.611 89.9291C187.074 89.4917 187.618 89.1507 188.214 88.9258C188.809 88.7009 189.443 88.5967 190.079 88.6192C194.374 88.4475 200.204 91.2712 203.103 94.9216C203.285 95.1578 203.435 95.3725 203.596 95.598H80.8135C80.5707 94.2162 80.6497 92.797 81.0445 91.4508C81.4393 90.1045 82.1391 88.8673 83.0896 87.8355Z" fill="#F5F5F5"/>
<path d="M222.342 39.7252C222.72 39.682 223.1 39.6605 223.48 39.6607C223.126 35.7097 225.177 33.2188 229.546 33.2188C232.703 33.2188 236.568 34.5394 240.519 36.7726C239.392 29.1067 242.999 24.1143 251.191 24.1143C257.794 24.1143 266.147 27.3352 274.404 32.7035C275.123 29.6973 277.56 27.8935 281.651 27.8935C288.823 27.8935 299.033 33.455 307.214 41.3142C309.386 39.3626 312.207 38.2907 315.127 38.3079C321.966 37.9536 330.448 41.1531 337.975 46.3711C338.333 45.8876 338.804 45.4982 339.346 45.2365C339.889 44.9747 340.486 44.8482 341.088 44.868C344.824 44.6854 349.978 47.5521 352.963 51.4065H216.33C213.12 45.5121 215.675 40.4016 222.342 39.7252Z" fill="#F5F5F5"/>
<path d="M405.594 22.9869C402.587 16.545 404.982 11.8746 412.315 11.8746C416.921 11.8746 422.632 13.6891 428.194 16.6524C428.817 14.9668 430.588 13.9468 433.433 13.9468C438.447 13.9468 445.351 17.0818 450.762 21.4624C452.435 20.3519 454.402 19.7685 456.409 19.7875C461.198 19.5835 467.006 21.3765 472.053 24.3075C472.348 24.0249 472.696 23.8043 473.078 23.6586C473.46 23.513 473.867 23.4452 474.275 23.4593C475.874 23.517 477.443 23.9066 478.883 24.6035C480.323 25.3003 481.602 26.2891 482.639 27.507L482.961 27.9365H401.846C399.28 25.6603 402.115 23.0943 405.594 22.9869Z" fill="#F5F5F5"/>
<path d="M133.111 234.615H96.542V351.514H133.111V234.615Z" fill="#EBEBEB"/>
<path d="M121.162 351.514H181.125L181.125 193.934H121.162L121.162 351.514Z" fill="#F5F5F5"/>
<path d="M212.25 193.934H181.125V351.514H212.25V193.934Z" fill="#EBEBEB"/>
<path d="M129.225 193.934H181.125V178.269H129.225V193.934Z" fill="#F5F5F5"/>
<path d="M129.225 193.934H181.125V190.412H129.225V193.934Z" fill="#EBEBEB"/>
<path d="M204.176 178.269H181.125V193.934H204.176V178.269Z" fill="#EBEBEB"/>
<path d="M137.288 178.269H181.114V162.605H137.288V178.269Z" fill="#F5F5F5"/>
<path d="M137.288 178.269H181.114V174.748H137.288V178.269Z" fill="#EBEBEB"/>
<path d="M196.113 162.605H181.125V178.269H196.113V162.605Z" fill="#EBEBEB"/>
<path d="M168.155 140.724H165.245V162.615H168.155V140.724Z" fill="#EBEBEB"/>
<path d="M202.308 351.514H246.103L246.103 221.334H202.308V351.514Z" fill="#F5F5F5"/>
<path d="M268.832 221.333H246.103V351.514H268.832V221.333Z" fill="#EBEBEB"/>
<path d="M257.461 258.525L290.669 286.998V351.514H257.461V258.525Z" fill="#F5F5F5"/>
<path d="M307.912 286.987H290.68V351.503H307.912V286.987Z" fill="#EBEBEB"/>
<path d="M307.912 286.998H290.669L257.461 258.525H274.704L307.912 286.998Z" fill="#EBEBEB"/>
<path d="M463.57 351.514C464.031 348.935 465.127 346.511 466.76 344.462C468.393 342.413 470.511 340.803 472.922 339.779C470.805 343.308 469.844 347.411 470.173 351.514H463.57Z" fill="#EBEBEB"/>
<path d="M153.853 351.514C153.393 348.935 152.297 346.511 150.664 344.462C149.031 342.413 146.913 340.803 144.502 339.779C146.619 343.308 147.58 347.411 147.251 351.514H153.853Z" fill="#EBEBEB"/>
<path d="M77.1735 351.514C77.1735 351.514 76.6474 337.771 70.9033 333.777C73.2546 339.392 72.7607 351.514 72.7607 351.514H77.1735Z" fill="#EBEBEB"/>
<path d="M75.0156 351.514C75.0156 351.514 75.5417 343.623 81.2858 341.336C78.9345 344.557 79.4498 351.514 79.4498 351.514H75.0156Z" fill="#EBEBEB"/>
<path d="M158.772 351.514C158.772 351.514 158.192 338.501 147.777 333.777C152.437 340.455 152.169 351.514 152.169 351.514H158.772Z" fill="#EBEBEB"/>
<path d="M415.568 333.906H389.252C388.968 333.906 388.695 333.793 388.493 333.591C388.292 333.39 388.179 333.117 388.179 332.832V306.549C388.179 306.264 388.292 305.991 388.493 305.79C388.695 305.589 388.968 305.476 389.252 305.476H415.568C415.852 305.476 416.125 305.589 416.327 305.79C416.528 305.991 416.641 306.264 416.641 306.549V332.832C416.641 333.117 416.528 333.39 416.327 333.591C416.125 333.793 415.852 333.906 415.568 333.906ZM390.326 331.759H414.494V307.623H390.326V331.759Z" fill="#E0E0E0"/>
<path d="M415.568 307.623H389.252C388.968 307.623 388.695 307.51 388.493 307.308C388.292 307.107 388.179 306.834 388.179 306.549V280.223C388.179 279.939 388.292 279.665 388.493 279.464C388.695 279.263 388.968 279.15 389.252 279.15H415.568C415.852 279.15 416.125 279.263 416.327 279.464C416.528 279.665 416.641 279.939 416.641 280.223V306.549C416.641 306.834 416.528 307.107 416.327 307.308C416.125 307.51 415.852 307.623 415.568 307.623ZM390.326 305.476H414.494V281.297H390.326V305.476Z" fill="#E0E0E0"/>
<path d="M415.567 333.906C415.284 333.902 415.014 333.786 414.816 333.584L388.49 307.269C388.287 307.066 388.174 306.792 388.174 306.506C388.174 306.22 388.287 305.946 388.49 305.744C388.692 305.542 388.966 305.428 389.252 305.428C389.538 305.428 389.812 305.542 390.014 305.744L416.329 332.113C416.529 332.314 416.642 332.586 416.642 332.87C416.642 333.154 416.529 333.426 416.329 333.627C416.122 333.816 415.848 333.916 415.567 333.906Z" fill="#E0E0E0"/>
<path d="M415.567 307.623C415.286 307.622 415.016 307.51 414.816 307.312L388.49 280.986C388.29 280.784 388.178 280.512 388.178 280.229C388.178 279.945 388.29 279.673 388.49 279.472C388.59 279.371 388.708 279.291 388.839 279.237C388.97 279.182 389.111 279.154 389.252 279.154C389.394 279.154 389.534 279.182 389.665 279.237C389.796 279.291 389.915 279.371 390.015 279.472L416.33 305.787C416.481 305.937 416.584 306.129 416.626 306.338C416.668 306.547 416.647 306.764 416.565 306.961C416.483 307.158 416.345 307.326 416.167 307.444C415.99 307.562 415.781 307.624 415.567 307.623Z" fill="#E0E0E0"/>
<path d="M415.568 281.297H389.252C388.968 281.297 388.695 281.184 388.493 280.983C388.292 280.781 388.179 280.508 388.179 280.223V253.908C388.179 253.623 388.292 253.35 388.493 253.149C388.695 252.948 388.968 252.834 389.252 252.834H415.568C415.852 252.834 416.125 252.948 416.327 253.149C416.528 253.35 416.641 253.623 416.641 253.908V280.223C416.641 280.508 416.528 280.781 416.327 280.983C416.125 281.184 415.852 281.297 415.568 281.297ZM390.326 279.15H414.494V254.982H390.326V279.15Z" fill="#E0E0E0"/>
<path d="M415.568 254.982H389.252C388.968 254.982 388.695 254.869 388.493 254.667C388.292 254.466 388.179 254.193 388.179 253.908V227.614C388.179 227.33 388.292 227.056 388.493 226.855C388.695 226.654 388.968 226.541 389.252 226.541H415.568C415.852 226.541 416.125 226.654 416.327 226.855C416.528 227.056 416.641 227.33 416.641 227.614V253.94C416.633 254.219 416.516 254.484 416.316 254.679C416.115 254.873 415.847 254.982 415.568 254.982ZM390.326 252.834H414.494V228.688H390.326V252.834Z" fill="#E0E0E0"/>
<path d="M415.567 281.297C415.286 281.296 415.016 281.184 414.816 280.986L388.49 254.66C388.29 254.459 388.178 254.186 388.178 253.903C388.178 253.619 388.29 253.347 388.49 253.146C388.59 253.045 388.708 252.965 388.839 252.911C388.97 252.856 389.111 252.828 389.252 252.828C389.394 252.828 389.534 252.856 389.665 252.911C389.796 252.965 389.915 253.045 390.015 253.146L416.33 279.472C416.53 279.673 416.642 279.945 416.642 280.229C416.642 280.512 416.53 280.784 416.33 280.986C416.229 281.085 416.11 281.164 415.98 281.217C415.849 281.271 415.709 281.298 415.567 281.297Z" fill="#E0E0E0"/>
<path d="M415.567 254.982C415.284 254.978 415.014 254.862 414.816 254.66L388.49 228.344C388.287 228.142 388.174 227.868 388.174 227.582C388.174 227.296 388.287 227.022 388.49 226.82C388.692 226.618 388.966 226.504 389.252 226.504C389.538 226.504 389.812 226.618 390.014 226.82L416.329 253.146C416.529 253.347 416.642 253.619 416.642 253.903C416.642 254.186 416.529 254.459 416.329 254.66C416.23 254.761 416.111 254.842 415.981 254.897C415.85 254.952 415.709 254.981 415.567 254.982Z" fill="#E0E0E0"/>
<path d="M415.568 228.688H389.252C388.968 228.688 388.695 228.575 388.493 228.373C388.292 228.172 388.179 227.899 388.179 227.614V201.256C388.179 200.971 388.292 200.698 388.493 200.497C388.695 200.296 388.968 200.182 389.252 200.182H415.568C415.852 200.182 416.125 200.296 416.327 200.497C416.528 200.698 416.641 200.971 416.641 201.256V227.614C416.641 227.899 416.528 228.172 416.327 228.373C416.125 228.575 415.852 228.688 415.568 228.688ZM390.326 226.541H414.494V202.33H390.326V226.541Z" fill="#E0E0E0"/>
<path d="M415.568 202.33H389.252C388.968 202.33 388.695 202.217 388.493 202.015C388.292 201.814 388.179 201.541 388.179 201.256V174.941C388.179 174.656 388.292 174.383 388.493 174.182C388.695 173.98 388.968 173.867 389.252 173.867H415.568C415.852 173.867 416.125 173.98 416.327 174.182C416.528 174.383 416.641 174.656 416.641 174.941V201.256C416.641 201.541 416.528 201.814 416.327 202.015C416.125 202.217 415.852 202.33 415.568 202.33ZM390.326 200.183H414.494V176.015H390.326V200.183Z" fill="#E0E0E0"/>
<path d="M415.567 228.688C415.286 228.687 415.016 228.575 414.816 228.377L388.49 202.051C388.29 201.85 388.178 201.577 388.178 201.294C388.178 201.01 388.29 200.738 388.49 200.537C388.59 200.436 388.708 200.356 388.839 200.302C388.97 200.247 389.111 200.219 389.252 200.219C389.394 200.219 389.534 200.247 389.665 200.302C389.796 200.356 389.915 200.436 390.015 200.537L416.33 226.82C416.481 226.97 416.584 227.162 416.626 227.371C416.668 227.58 416.647 227.797 416.565 227.994C416.483 228.191 416.345 228.359 416.167 228.477C415.99 228.595 415.781 228.657 415.567 228.656V228.688Z" fill="#E0E0E0"/>
<path d="M389.252 114.398H362.926C362.641 114.398 362.368 114.285 362.167 114.083C361.966 113.882 361.853 113.609 361.853 113.324V86.9659C361.853 86.6811 361.966 86.408 362.167 86.2067C362.368 86.0053 362.641 85.8922 362.926 85.8922H389.252C389.537 85.8922 389.81 86.0053 390.011 86.2067C390.213 86.408 390.326 86.6811 390.326 86.9659V113.281C390.332 113.426 390.308 113.57 390.257 113.705C390.205 113.84 390.127 113.964 390.027 114.068C389.927 114.172 389.806 114.255 389.673 114.312C389.54 114.369 389.397 114.398 389.252 114.398ZM364 112.25H388.178V88.0395H364V112.25Z" fill="#E0E0E0"/>
<path d="M415.568 114.398H389.252C388.968 114.398 388.695 114.285 388.493 114.083C388.292 113.882 388.179 113.609 388.179 113.324C388.179 113.039 388.292 112.766 388.493 112.565C388.695 112.363 388.968 112.25 389.252 112.25H414.494V60.715C414.494 60.4303 414.607 60.1572 414.808 59.9558C415.01 59.7545 415.283 59.6414 415.568 59.6414C415.852 59.6414 416.125 59.7545 416.327 59.9558C416.528 60.1572 416.641 60.4303 416.641 60.715V113.324C416.641 113.609 416.528 113.882 416.327 114.083C416.125 114.285 415.852 114.398 415.568 114.398Z" fill="#E0E0E0"/>
<path d="M389.252 114.398C389.068 114.399 388.887 114.353 388.726 114.264C388.565 114.175 388.429 114.047 388.332 113.89C388.235 113.734 388.18 113.555 388.172 113.372C388.164 113.188 388.203 113.005 388.286 112.841L414.612 60.2319C414.74 59.979 414.964 59.7874 415.234 59.6988C415.503 59.6103 415.797 59.6321 416.05 59.7595C416.305 59.8863 416.499 60.109 416.59 60.3788C416.68 60.6486 416.66 60.9433 416.534 61.1982L390.208 113.807C390.118 113.984 389.982 114.133 389.813 114.237C389.645 114.342 389.45 114.397 389.252 114.398Z" fill="#E0E0E0"/>
<path d="M362.926 114.398H336.611C336.326 114.398 336.053 114.285 335.852 114.083C335.65 113.882 335.537 113.609 335.537 113.324V86.9659C335.537 86.6811 335.65 86.408 335.852 86.2067C336.053 86.0053 336.326 85.8922 336.611 85.8922H362.926C363.211 85.8922 363.484 86.0053 363.685 86.2067C363.887 86.408 364 86.6811 364 86.9659V113.281C364.005 113.426 363.982 113.57 363.931 113.705C363.879 113.84 363.801 113.964 363.701 114.068C363.6 114.172 363.48 114.255 363.347 114.312C363.214 114.369 363.071 114.398 362.926 114.398ZM337.684 112.25H361.852V88.0395H337.684V112.25Z" fill="#E0E0E0"/>
<path d="M362.926 114.398C362.716 114.395 362.511 114.33 362.337 114.212C362.163 114.094 362.028 113.927 361.948 113.733C361.868 113.539 361.847 113.325 361.887 113.119C361.927 112.913 362.027 112.723 362.174 112.573L388.489 86.2465C388.589 86.1459 388.708 86.066 388.839 86.0115C388.97 85.957 389.11 85.929 389.252 85.929C389.393 85.929 389.534 85.957 389.665 86.0115C389.795 86.066 389.914 86.1459 390.014 86.2465C390.214 86.4477 390.326 86.7198 390.326 87.0035C390.326 87.2871 390.214 87.5592 390.014 87.7604L363.72 114.086C363.616 114.19 363.492 114.271 363.355 114.324C363.219 114.378 363.072 114.403 362.926 114.398Z" fill="#E0E0E0"/>
<path d="M441.894 114.398H415.568C415.283 114.398 415.01 114.285 414.809 114.083C414.607 113.882 414.494 113.609 414.494 113.324V86.9659C414.494 86.6811 414.607 86.408 414.809 86.2067C415.01 86.0053 415.283 85.8922 415.568 85.8922H441.894C442.178 85.8922 442.452 86.0053 442.653 86.2067C442.854 86.408 442.967 86.6811 442.967 86.9659V113.281C442.973 113.426 442.95 113.57 442.898 113.705C442.847 113.84 442.769 113.964 442.669 114.068C442.568 114.172 442.448 114.255 442.315 114.312C442.182 114.369 442.038 114.398 441.894 114.398ZM416.641 112.25H440.82V88.0395H416.641V112.25Z" fill="#E0E0E0"/>
<path d="M415.567 114.398C415.357 114.395 415.153 114.33 414.979 114.212C414.805 114.094 414.67 113.927 414.59 113.733C414.51 113.539 414.488 113.325 414.529 113.119C414.569 112.913 414.669 112.723 414.816 112.573L441.131 86.2465C441.231 86.1459 441.35 86.066 441.48 86.0115C441.611 85.957 441.752 85.929 441.893 85.929C442.035 85.929 442.175 85.957 442.306 86.0115C442.437 86.066 442.556 86.1459 442.656 86.2465C442.856 86.4477 442.968 86.7198 442.968 87.0035C442.968 87.2871 442.856 87.5592 442.656 87.7604L416.33 114.086C416.229 114.186 416.11 114.265 415.98 114.318C415.849 114.371 415.709 114.399 415.567 114.398Z" fill="#E0E0E0"/>
<path d="M257.644 114.398C257.503 114.398 257.362 114.371 257.232 114.318C257.101 114.265 256.982 114.186 256.882 114.086C256.682 113.885 256.569 113.613 256.569 113.329C256.569 113.046 256.682 112.774 256.882 112.572L283.197 86.2465C283.343 86.093 283.535 85.9913 283.744 85.9566L415.363 59.6306C415.536 59.5961 415.714 59.6045 415.883 59.655C416.051 59.7056 416.205 59.7967 416.33 59.9205L468.939 112.53C469.051 112.626 469.142 112.744 469.207 112.877C469.271 113.011 469.307 113.156 469.313 113.304C469.319 113.451 469.294 113.599 469.24 113.737C469.186 113.874 469.104 114 468.999 114.104C468.895 114.209 468.77 114.291 468.632 114.345C468.494 114.399 468.347 114.424 468.199 114.418C468.051 114.412 467.906 114.376 467.773 114.311C467.64 114.247 467.521 114.156 467.425 114.043L415.256 61.8531L284.496 88.0395L258.395 114.129C258.189 114.312 257.92 114.408 257.644 114.398Z" fill="#E0E0E0"/>
<path d="M336.611 114.398C336.469 114.398 336.329 114.371 336.198 114.318C336.068 114.264 335.949 114.186 335.848 114.086C335.648 113.885 335.536 113.613 335.536 113.329C335.536 113.046 335.648 112.774 335.848 112.572L362.174 86.2465C362.38 86.0706 362.644 85.9786 362.914 85.9891C363.184 85.9995 363.441 86.1115 363.632 86.3027C363.823 86.494 363.935 86.7503 363.946 87.0205C363.956 87.2907 363.864 87.5549 363.688 87.7603L337.362 114.086C337.162 114.285 336.892 114.396 336.611 114.398Z" fill="#E0E0E0"/>
<path d="M336.611 114.398H310.285C310 114.398 309.727 114.285 309.525 114.083C309.324 113.882 309.211 113.609 309.211 113.324V86.9659C309.211 86.6811 309.324 86.408 309.525 86.2067C309.727 86.0053 310 85.8922 310.285 85.8922H336.611C336.895 85.8922 337.168 86.0053 337.37 86.2067C337.571 86.408 337.684 86.6811 337.684 86.9659V113.281C337.69 113.426 337.666 113.57 337.615 113.705C337.564 113.84 337.486 113.964 337.385 114.068C337.285 114.172 337.165 114.255 337.032 114.312C336.898 114.369 336.755 114.398 336.611 114.398ZM311.358 112.25H335.537V88.0395H311.358V112.25Z" fill="#E0E0E0"/>
<path d="M310.285 114.398H283.959C283.675 114.398 283.402 114.285 283.2 114.083C282.999 113.882 282.886 113.609 282.886 113.324V86.9659C282.886 86.6811 282.999 86.408 283.2 86.2067C283.402 86.0053 283.675 85.8922 283.959 85.8922H310.285C310.57 85.8922 310.843 86.0053 311.045 86.2067C311.246 86.408 311.359 86.6811 311.359 86.9659V113.281C311.365 113.426 311.341 113.57 311.29 113.705C311.239 113.84 311.16 113.964 311.06 114.068C310.96 114.172 310.84 114.255 310.706 114.312C310.573 114.369 310.43 114.398 310.285 114.398ZM285.033 112.25H309.212V88.0395H285.033V112.25Z" fill="#E0E0E0"/>
<path d="M310.285 114.398C310.144 114.398 310.004 114.371 309.873 114.318C309.742 114.264 309.623 114.186 309.523 114.086C309.323 113.885 309.211 113.613 309.211 113.329C309.211 113.046 309.323 112.774 309.523 112.572L335.806 86.2465C336.012 86.0706 336.276 85.9786 336.546 85.9891C336.816 85.9995 337.073 86.1115 337.264 86.3027C337.455 86.494 337.567 86.7503 337.577 87.0205C337.588 87.2907 337.496 87.5549 337.32 87.7603L311.005 114.086C310.813 114.277 310.556 114.388 310.285 114.398Z" fill="#E0E0E0"/>
<path d="M283.959 114.398C283.749 114.395 283.544 114.33 283.37 114.212C283.197 114.094 283.061 113.927 282.981 113.733C282.901 113.539 282.88 113.325 282.92 113.119C282.96 112.913 283.06 112.723 283.207 112.573L309.523 86.2465C309.622 86.1459 309.741 86.066 309.872 86.0115C310.003 85.957 310.143 85.929 310.285 85.929C310.427 85.929 310.567 85.957 310.698 86.0115C310.829 86.066 310.947 86.1459 311.047 86.2465C311.247 86.4477 311.359 86.7198 311.359 87.0035C311.359 87.2871 311.247 87.5592 311.047 87.7604L284.721 114.086C284.621 114.186 284.502 114.265 284.371 114.318C284.24 114.371 284.1 114.399 283.959 114.398Z" fill="#E0E0E0"/>
<path d="M283.959 114.398H257.644C257.359 114.398 257.086 114.285 256.885 114.083C256.683 113.882 256.57 113.609 256.57 113.324C256.57 113.039 256.683 112.766 256.885 112.565C257.086 112.364 257.359 112.25 257.644 112.25H282.886V86.9659C282.886 86.6811 282.999 86.408 283.2 86.2067C283.401 86.0053 283.674 85.8922 283.959 85.8922C284.244 85.8922 284.517 86.0053 284.718 86.2067C284.92 86.408 285.033 86.6811 285.033 86.9659V113.281C285.039 113.426 285.015 113.57 284.964 113.705C284.912 113.84 284.834 113.964 284.734 114.068C284.634 114.172 284.513 114.255 284.38 114.312C284.247 114.369 284.104 114.398 283.959 114.398Z" fill="#E0E0E0"/>
<path d="M415.567 202.33C415.285 202.329 415.016 202.217 414.816 202.018L388.49 175.703C388.389 175.603 388.31 175.484 388.256 175.354C388.202 175.223 388.174 175.083 388.174 174.941C388.174 174.799 388.202 174.659 388.256 174.528C388.31 174.398 388.389 174.279 388.49 174.179C388.59 174.079 388.709 173.999 388.839 173.945C388.97 173.891 389.11 173.863 389.252 173.863C389.393 173.863 389.534 173.891 389.664 173.945C389.795 173.999 389.914 174.079 390.014 174.179L416.329 200.505C416.529 200.706 416.642 200.978 416.642 201.262C416.642 201.545 416.529 201.817 416.329 202.018C416.229 202.118 416.11 202.197 415.979 202.25C415.848 202.304 415.708 202.331 415.567 202.33Z" fill="#E0E0E0"/>
<path d="M415.568 176.015H389.252C388.968 176.015 388.695 175.901 388.493 175.7C388.292 175.499 388.179 175.226 388.179 174.941V148.615C388.179 148.33 388.292 148.057 388.493 147.856C388.695 147.654 388.968 147.541 389.252 147.541H415.568C415.852 147.541 416.125 147.654 416.327 147.856C416.528 148.057 416.641 148.33 416.641 148.615V174.941C416.641 175.226 416.528 175.499 416.327 175.7C416.125 175.901 415.852 176.015 415.568 176.015ZM390.326 173.867H414.494V149.689H390.326V173.867Z" fill="#E0E0E0"/>
<path d="M415.568 149.689H389.252C388.968 149.689 388.695 149.575 388.493 149.374C388.292 149.173 388.179 148.9 388.179 148.615V122.3C388.179 122.015 388.292 121.742 388.493 121.541C388.695 121.339 388.968 121.226 389.252 121.226H415.568C415.852 121.226 416.125 121.339 416.327 121.541C416.528 121.742 416.641 122.015 416.641 122.3V148.615C416.641 148.9 416.528 149.173 416.327 149.374C416.125 149.575 415.852 149.689 415.568 149.689ZM390.326 147.541H414.494V123.373H390.326V147.541Z" fill="#E0E0E0"/>
<path d="M415.567 176.015C415.285 176.013 415.016 175.902 414.816 175.703L388.49 149.377C388.389 149.277 388.31 149.158 388.256 149.027C388.202 148.897 388.174 148.756 388.174 148.615C388.174 148.473 388.202 148.333 388.256 148.202C388.31 148.072 388.389 147.953 388.49 147.853C388.59 147.753 388.709 147.673 388.839 147.619C388.97 147.565 389.11 147.537 389.252 147.537C389.393 147.537 389.534 147.565 389.664 147.619C389.795 147.673 389.914 147.753 390.014 147.853L416.329 174.179C416.481 174.329 416.584 174.521 416.626 174.73C416.668 174.939 416.647 175.156 416.565 175.353C416.483 175.55 416.345 175.718 416.167 175.836C415.989 175.953 415.78 176.016 415.567 176.015Z" fill="#E0E0E0"/>
<path d="M415.567 149.689C415.286 149.687 415.016 149.576 414.816 149.377L388.49 123.051C388.29 122.85 388.178 122.578 388.178 122.294C388.178 122.011 388.29 121.739 388.49 121.537C388.59 121.437 388.708 121.357 388.839 121.302C388.97 121.248 389.111 121.22 389.252 121.22C389.394 121.22 389.534 121.248 389.665 121.302C389.796 121.357 389.915 121.437 390.015 121.537L416.33 147.853C416.481 148.003 416.584 148.195 416.626 148.404C416.668 148.613 416.647 148.83 416.565 149.027C416.483 149.224 416.345 149.392 416.167 149.51C415.99 149.628 415.781 149.69 415.567 149.689Z" fill="#E0E0E0"/>
<path d="M468.219 113.324H257.644L283.959 122.3H468.219V113.324Z" fill="#E0E0E0"/>
<path d="M468.22 123.373H283.959C283.842 123.373 283.725 123.351 283.616 123.309L257.29 114.344C257.045 114.264 256.838 114.099 256.705 113.879C256.572 113.659 256.523 113.398 256.566 113.145C256.609 112.891 256.741 112.662 256.939 112.498C257.137 112.333 257.387 112.246 257.644 112.25H468.22C468.504 112.25 468.777 112.364 468.979 112.565C469.18 112.766 469.293 113.039 469.293 113.324V122.3C469.293 122.585 469.18 122.858 468.979 123.059C468.777 123.26 468.504 123.373 468.22 123.373ZM284.142 121.226H467.146V114.398H264.118L284.142 121.226Z" fill="#E0E0E0"/>
<path d="M369.765 159.223H389.252V117.812H369.765V159.223Z" fill="#E0E0E0"/>
<path d="M369.755 117.812H360.693V159.223H369.755V117.812Z" fill="#F5F5F5"/>
<path d="M392.151 351.503H430.523V332.865H392.151V351.503Z" fill="#E0E0E0"/>
<path d="M392.151 332.875H374.296V351.514H392.151V332.875Z" fill="#F5F5F5"/>
<path d="M441.893 159.588C441.608 159.588 441.335 159.475 441.134 159.273C440.932 159.072 440.819 158.799 440.819 158.514V117.812C440.819 117.527 440.932 117.254 441.134 117.053C441.335 116.851 441.608 116.738 441.893 116.738C442.178 116.738 442.451 116.851 442.652 117.053C442.854 117.254 442.967 117.527 442.967 117.812V158.514C442.967 158.799 442.854 159.072 442.652 159.273C442.451 159.475 442.178 159.588 441.893 159.588Z" fill="#E0E0E0"/>
<path d="M441.894 164.527C441.193 164.527 440.508 164.319 439.925 163.929C439.343 163.54 438.888 162.987 438.62 162.339C438.352 161.692 438.282 160.98 438.419 160.292C438.555 159.605 438.893 158.974 439.388 158.478C439.884 157.983 440.515 157.645 441.202 157.509C441.89 157.372 442.602 157.442 443.25 157.71C443.897 157.978 444.45 158.432 444.84 159.015C445.229 159.598 445.437 160.283 445.437 160.983C445.437 161.449 445.345 161.909 445.167 162.339C444.989 162.769 444.728 163.16 444.399 163.489C444.07 163.818 443.679 164.079 443.25 164.257C442.82 164.435 442.359 164.527 441.894 164.527ZM441.894 159.588C441.618 159.588 441.348 159.67 441.118 159.823C440.889 159.976 440.71 160.194 440.604 160.449C440.498 160.704 440.471 160.985 440.525 161.256C440.579 161.527 440.711 161.775 440.907 161.97C441.102 162.166 441.351 162.299 441.621 162.352C441.892 162.406 442.173 162.379 442.428 162.273C442.683 162.167 442.901 161.988 443.054 161.759C443.208 161.529 443.289 161.26 443.289 160.983C443.289 160.8 443.253 160.619 443.183 160.449C443.113 160.28 443.01 160.126 442.881 159.997C442.751 159.867 442.597 159.764 442.428 159.694C442.258 159.624 442.077 159.588 441.894 159.588Z" fill="#E0E0E0"/>
<path d="M287.266 180.953C286.981 180.953 286.708 180.84 286.507 180.639C286.305 180.438 286.192 180.165 286.192 179.88V117.812C286.192 117.527 286.305 117.254 286.507 117.053C286.708 116.851 286.981 116.738 287.266 116.738C287.551 116.738 287.824 116.851 288.025 117.053C288.227 117.254 288.34 117.527 288.34 117.812V179.88C288.34 180.165 288.227 180.438 288.025 180.639C287.824 180.84 287.551 180.953 287.266 180.953Z" fill="#E0E0E0"/>
<path d="M297.347 187.385C297.091 187.388 296.843 187.301 296.646 187.137C296.449 186.974 296.317 186.746 296.273 186.493C295.479 185.248 288.49 181.125 287.212 180.953C286.009 181.114 279.02 185.248 278.225 186.493C278.201 186.778 278.065 187.042 277.846 187.226C277.628 187.41 277.345 187.5 277.06 187.476C276.776 187.452 276.512 187.315 276.328 187.097C276.144 186.878 276.054 186.596 276.078 186.311C276.078 183.895 285.816 178.795 287.223 178.795C288.629 178.795 298.378 183.885 298.378 186.311C298.378 186.588 298.271 186.855 298.079 187.055C297.887 187.256 297.624 187.374 297.347 187.385Z" fill="#E0E0E0"/>
<path d="M308.965 264.988L324.715 249.238L321.355 242.796C321.644 242.152 321.913 241.507 322.16 240.842L329.063 238.694V216.448L322.16 214.301C321.902 213.646 321.644 212.991 321.355 212.347L324.704 205.905L308.965 190.187L302.523 193.537C301.879 193.247 301.234 192.978 300.579 192.731L298.432 185.828H276.132L273.985 192.731C273.33 192.978 272.686 193.247 272.042 193.537L265.6 190.187L249.914 205.927L253.274 212.368C252.974 213.013 252.716 213.668 252.458 214.322L245.555 216.47V238.737L252.458 240.885C252.716 241.55 252.974 242.195 253.264 242.839L249.914 249.281L265.664 265.031L272.106 261.671C272.75 261.96 273.405 262.229 274.06 262.476L276.207 269.379H298.486L300.633 262.476C301.288 262.229 301.932 261.96 302.576 261.671L308.965 264.988ZM299.033 239.296C296.715 241.615 293.762 243.194 290.546 243.835C287.33 244.475 283.996 244.147 280.967 242.893C277.937 241.638 275.348 239.514 273.526 236.787C271.704 234.061 270.731 230.856 270.731 227.577C270.731 224.298 271.704 221.092 273.526 218.366C275.348 215.64 277.937 213.515 280.967 212.261C283.996 211.006 287.33 210.678 290.546 211.319C293.762 211.959 296.715 213.539 299.033 215.858C300.572 217.398 301.791 219.227 302.621 221.24C303.452 223.252 303.877 225.409 303.873 227.586C303.869 229.763 303.436 231.918 302.598 233.927C301.76 235.936 300.534 237.761 298.99 239.296H299.033Z" fill="#E0E0E0"/>
<path d="M269.239 400C384.208 400 477.409 394.559 477.409 387.846C477.409 381.134 384.208 375.693 269.239 375.693C154.269 375.693 61.0684 381.134 61.0684 387.846C61.0684 394.559 154.269 400 269.239 400Z" fill="#F5F5F5"/>
<path d="M189.671 116.116H176.272C175.659 116.116 175.057 116.277 174.526 116.582C173.995 116.888 173.553 117.326 173.244 117.855L166.544 129.461C166.238 129.994 166.077 130.597 166.077 131.211C166.077 131.826 166.238 132.429 166.544 132.961L173.244 144.557C173.55 145.089 173.991 145.531 174.523 145.839C175.054 146.146 175.658 146.307 176.272 146.307H189.671C190.285 146.307 190.888 146.146 191.42 145.839C191.951 145.531 192.393 145.089 192.699 144.557L199.398 132.961C199.704 132.429 199.865 131.826 199.865 131.211C199.865 130.597 199.704 129.994 199.398 129.461L192.699 117.855C192.39 117.326 191.947 116.888 191.416 116.582C190.885 116.277 190.283 116.116 189.671 116.116Z" fill="#407BFF"/>
<path opacity="0.5" d="M189.671 116.116H176.272C175.659 116.116 175.057 116.277 174.526 116.582C173.995 116.888 173.553 117.326 173.244 117.855L166.544 129.461C166.238 129.994 166.077 130.597 166.077 131.211C166.077 131.826 166.238 132.429 166.544 132.961L173.244 144.557C173.55 145.089 173.991 145.531 174.523 145.839C175.054 146.146 175.658 146.307 176.272 146.307H189.671C190.285 146.307 190.888 146.146 191.42 145.839C191.951 145.531 192.393 145.089 192.699 144.557L199.398 132.961C199.704 132.429 199.865 131.826 199.865 131.211C199.865 130.597 199.704 129.994 199.398 129.461L192.699 117.855C192.39 117.326 191.947 116.888 191.416 116.582C190.885 116.277 190.283 116.116 189.671 116.116Z" fill="white"/>
<path d="M103.897 77.6577L103.135 76.8954L109.577 70.4535L110.339 71.2158L103.897 77.6577ZM114.988 66.5668L114.226 65.8045L127.689 52.3409L128.451 53.0925L114.988 66.5668Z" fill="#407BFF"/>
<path opacity="0.5" d="M103.897 77.6577L103.135 76.8954L109.577 70.4535L110.339 71.2158L103.897 77.6577ZM114.988 66.5668L114.226 65.8045L127.689 52.3409L128.451 53.0925L114.988 66.5668Z" fill="white"/>
<path d="M274.071 155.508V106.914L259.04 102.201C258.503 100.762 257.912 99.3451 257.29 97.9064L264.601 83.9489L230.244 49.592L216.287 56.9144C214.88 56.2809 213.474 55.6904 211.992 55.1428L207.279 40.1117H158.653L153.951 55.1428C152.501 55.6904 151.095 56.2809 149.656 56.9144L135.699 49.592L101.342 83.9489L108.664 97.9064C108.031 99.3129 107.44 100.719 106.903 102.201L91.8721 106.914V155.508L106.903 160.21C107.451 161.649 108.041 163.066 108.664 164.505L101.342 178.463L135.699 212.819L149.656 205.497C151.052 206.131 152.458 206.721 153.951 207.269L158.653 222.3H207.247L211.96 207.269C213.399 206.721 214.805 206.131 216.255 205.497L230.212 212.819L264.569 178.463L257.247 164.505C257.87 163.109 258.471 161.692 259.008 160.21L274.071 155.508ZM219.132 131.2C219.132 138.352 217.011 145.344 213.038 151.29C209.065 157.237 203.417 161.872 196.81 164.608C190.202 167.345 182.931 168.061 175.917 166.666C168.902 165.271 162.459 161.827 157.402 156.77C152.345 151.713 148.901 145.269 147.506 138.255C146.11 131.241 146.827 123.97 149.563 117.362C152.3 110.755 156.935 105.107 162.882 101.134C168.828 97.1605 175.82 95.0398 182.971 95.0398C192.561 95.0426 201.757 98.8533 208.538 105.634C215.319 112.415 219.129 121.611 219.132 131.2Z" fill="#407BFF"/>
<path opacity="0.5" d="M274.071 155.508V106.914L259.04 102.201C258.503 100.762 257.912 99.3451 257.29 97.9064L264.601 83.9489L230.244 49.592L216.287 56.9144C214.88 56.2809 213.474 55.6904 211.992 55.1428L207.279 40.1117H158.653L153.951 55.1428C152.501 55.6904 151.095 56.2809 149.656 56.9144L135.699 49.592L101.342 83.9489L108.664 97.9064C108.031 99.3129 107.44 100.719 106.903 102.201L91.8721 106.914V155.508L106.903 160.21C107.451 161.649 108.041 163.066 108.664 164.505L101.342 178.463L135.699 212.819L149.656 205.497C151.052 206.131 152.458 206.721 153.951 207.269L158.653 222.3H207.247L211.96 207.269C213.399 206.721 214.805 206.131 216.255 205.497L230.212 212.819L264.569 178.463L257.247 164.505C257.87 163.109 258.471 161.692 259.008 160.21L274.071 155.508ZM219.132 131.2C219.132 138.352 217.011 145.344 213.038 151.29C209.065 157.237 203.417 161.872 196.81 164.608C190.202 167.345 182.931 168.061 175.917 166.666C168.902 165.271 162.459 161.827 157.402 156.77C152.345 151.713 148.901 145.269 147.506 138.255C146.11 131.241 146.827 123.97 149.563 117.362C152.3 110.755 156.935 105.107 162.882 101.134C168.828 97.1605 175.82 95.0398 182.971 95.0398C192.561 95.0426 201.757 98.8533 208.538 105.634C215.319 112.415 219.129 121.611 219.132 131.2Z" fill="white"/>
<path d="M204.906 219.358H161.047C160.989 219.358 160.933 219.34 160.886 219.305C160.84 219.27 160.806 219.221 160.789 219.165L156.495 205.616C156.474 205.547 156.48 205.473 156.513 205.41C156.547 205.346 156.604 205.299 156.672 205.277C156.74 205.256 156.814 205.263 156.878 205.296C156.941 205.329 156.989 205.386 157.01 205.455L161.187 218.822H204.648L209.115 204.714C209.127 204.675 209.148 204.64 209.176 204.61C209.204 204.58 209.238 204.557 209.276 204.542L210.747 203.994C211.992 203.522 213.313 202.974 214.805 202.309L216.233 201.665C216.298 201.636 216.373 201.635 216.439 201.661C216.505 201.687 216.559 201.739 216.587 201.804C216.616 201.87 216.617 201.944 216.591 202.01C216.565 202.077 216.513 202.13 216.448 202.158L215.02 202.792C213.527 203.468 212.185 204.016 210.94 204.488L209.587 205.004L205.164 219.165C205.146 219.22 205.112 219.268 205.065 219.303C205.019 219.337 204.964 219.357 204.906 219.358ZM229.6 209.126C229.529 209.124 229.461 209.098 229.407 209.051C229.381 209.026 229.36 208.996 229.346 208.963C229.332 208.93 229.324 208.894 229.324 208.858C229.324 208.822 229.332 208.786 229.346 208.753C229.36 208.72 229.381 208.69 229.407 208.665L260.285 177.797L253.424 164.699C253.405 164.662 253.396 164.622 253.396 164.581C253.396 164.539 253.405 164.499 253.424 164.462L254.068 163.035C254.713 161.585 255.26 160.254 255.743 158.987L256.291 157.516C256.306 157.478 256.329 157.444 256.359 157.416C256.389 157.389 256.424 157.368 256.463 157.355L270.581 152.942V109.513L256.624 105.154C256.585 105.148 256.548 105.134 256.516 105.113C256.483 105.092 256.456 105.064 256.435 105.03C256.414 104.997 256.401 104.96 256.396 104.922C256.392 104.883 256.395 104.844 256.407 104.807C256.419 104.77 256.439 104.736 256.465 104.707C256.491 104.678 256.523 104.656 256.559 104.641C256.595 104.626 256.634 104.619 256.673 104.62C256.712 104.622 256.75 104.632 256.785 104.649L270.893 109.051C270.945 109.071 270.991 109.106 271.024 109.152C271.056 109.198 271.074 109.253 271.075 109.309V153.168C271.076 153.224 271.059 153.28 271.026 153.326C270.993 153.372 270.946 153.407 270.893 153.425L256.753 157.827L256.248 159.18C255.765 160.458 255.174 161.789 254.552 163.26L253.972 164.57L260.854 177.722C260.888 177.767 260.906 177.822 260.906 177.878C260.906 177.934 260.888 177.989 260.854 178.033L229.847 209.051C229.781 209.106 229.696 209.133 229.611 209.126H229.6ZM136.332 209.126C136.261 209.124 136.192 209.098 136.138 209.051L105.131 178.033C105.1 177.987 105.084 177.933 105.084 177.878C105.084 177.822 105.1 177.768 105.131 177.722L112.078 164.452C112.112 164.389 112.169 164.342 112.237 164.32C112.305 164.298 112.378 164.303 112.443 164.334C112.474 164.351 112.501 164.373 112.524 164.401C112.546 164.428 112.562 164.46 112.572 164.494C112.582 164.528 112.586 164.563 112.582 164.598C112.578 164.634 112.567 164.668 112.55 164.699L105.7 177.797L136.568 208.665C136.594 208.69 136.615 208.72 136.629 208.753C136.643 208.786 136.65 208.822 136.65 208.858C136.65 208.894 136.643 208.93 136.629 208.963C136.615 208.996 136.594 209.026 136.568 209.051C136.537 209.078 136.502 209.099 136.463 209.112C136.424 209.125 136.383 209.13 136.342 209.126H136.332ZM154.584 204.306H154.487C153.413 203.887 152.243 203.393 150.944 202.813C150.906 202.804 150.871 202.786 150.84 202.762C150.81 202.737 150.785 202.706 150.768 202.671C150.751 202.635 150.741 202.597 150.741 202.558C150.74 202.519 150.748 202.48 150.764 202.444C150.78 202.408 150.803 202.376 150.833 202.35C150.862 202.325 150.897 202.306 150.935 202.295C150.972 202.284 151.012 202.282 151.051 202.288C151.089 202.294 151.126 202.308 151.159 202.33C152.447 202.899 153.596 203.404 154.68 203.801C154.714 203.814 154.744 203.834 154.77 203.859C154.796 203.884 154.816 203.913 154.83 203.947C154.844 203.98 154.852 204.015 154.852 204.051C154.852 204.087 154.845 204.122 154.831 204.155C154.808 204.206 154.77 204.248 154.721 204.275C154.673 204.302 154.617 204.313 154.562 204.306H154.584ZM182.993 170.872C172.47 170.852 162.385 166.658 154.951 159.21C147.518 151.763 143.343 141.67 143.343 131.147C143.343 131.076 143.371 131.008 143.421 130.957C143.472 130.907 143.54 130.879 143.611 130.879C143.682 130.879 143.75 130.907 143.801 130.957C143.851 131.008 143.879 131.076 143.879 131.147C143.879 138.883 146.173 146.445 150.471 152.877C154.769 159.309 160.878 164.323 168.025 167.283C175.172 170.243 183.036 171.018 190.623 169.509C198.21 167.999 205.18 164.274 210.65 158.804C216.12 153.334 219.845 146.365 221.354 138.778C222.863 131.19 222.089 123.326 219.128 116.179C216.168 109.032 211.155 102.923 204.723 98.6256C198.291 94.3278 190.728 92.0339 182.993 92.0339C182.921 92.0339 182.853 92.0056 182.803 91.9553C182.752 91.9049 182.724 91.8367 182.724 91.7655C182.724 91.6943 182.752 91.626 182.803 91.5757C182.853 91.5253 182.921 91.4971 182.993 91.4971C193.511 91.4971 203.599 95.6756 211.037 103.113C218.475 110.551 222.653 120.639 222.653 131.158C222.653 141.676 218.475 151.764 211.037 159.202C203.599 166.64 193.511 170.819 182.993 170.819V170.872ZM109.984 159.352C109.928 159.35 109.874 159.331 109.828 159.299C109.783 159.266 109.747 159.221 109.727 159.169L109.222 157.827L95.039 153.393C94.9852 153.375 94.9386 153.34 94.9058 153.294C94.873 153.248 94.8558 153.192 94.8565 153.135V109.277C94.8573 109.22 94.8752 109.166 94.9078 109.12C94.9404 109.074 94.9861 109.039 95.039 109.019L108.599 104.789C108.668 104.768 108.741 104.774 108.805 104.806C108.869 104.838 108.918 104.893 108.943 104.961C108.96 105.03 108.951 105.104 108.918 105.168C108.884 105.231 108.828 105.28 108.76 105.304L95.3611 109.513V152.974L109.48 157.387C109.517 157.399 109.552 157.42 109.58 157.448C109.608 157.476 109.629 157.51 109.641 157.548L110.199 159.019C110.224 159.085 110.222 159.157 110.194 159.221C110.166 159.286 110.114 159.336 110.049 159.363L109.984 159.352ZM109.984 103.522H109.888C109.822 103.493 109.77 103.441 109.742 103.375C109.714 103.309 109.712 103.235 109.737 103.168C110.253 101.793 110.811 100.484 111.401 99.1522C111.432 99.0885 111.486 99.0392 111.552 99.0151C111.618 98.991 111.692 98.994 111.756 99.0234C111.788 99.0374 111.818 99.0577 111.842 99.0831C111.867 99.1085 111.886 99.1385 111.899 99.1715C111.912 99.2044 111.919 99.2396 111.918 99.275C111.917 99.3103 111.91 99.3453 111.895 99.3777C111.294 100.688 110.757 101.997 110.242 103.361C110.223 103.419 110.186 103.47 110.135 103.505C110.085 103.54 110.024 103.557 109.963 103.554L109.984 103.522ZM254.058 97.3914H253.929C253.898 97.3746 253.87 97.3517 253.848 97.3242C253.826 97.2967 253.809 97.2651 253.799 97.2312C253.789 97.1973 253.786 97.1617 253.79 97.1266C253.794 97.0914 253.804 97.0574 253.821 97.0264L260.263 84.6257L255.11 79.4507C255.079 79.4276 255.054 79.3982 255.035 79.3644C255.017 79.3307 255.006 79.2933 255.003 79.255C255 79.2166 255.006 79.1781 255.019 79.1421C255.033 79.1061 255.054 79.0734 255.081 79.0462C255.108 79.019 255.141 78.9979 255.177 78.9845C255.213 78.971 255.252 78.9655 255.29 78.9682C255.328 78.9709 255.366 78.9819 255.399 79.0003C255.433 79.0187 255.463 79.0441 255.486 79.0749L260.854 84.4432C260.888 84.4879 260.906 84.5426 260.906 84.5988C260.906 84.6551 260.888 84.7097 260.854 84.7545L254.272 97.327C254.244 97.3614 254.208 97.3883 254.167 97.4052C254.125 97.4221 254.08 97.4284 254.036 97.4236L254.058 97.3914ZM105.325 84.8189C105.253 84.8196 105.184 84.7927 105.131 84.7438C105.085 84.6924 105.059 84.6254 105.059 84.5559C105.059 84.4864 105.085 84.4194 105.131 84.368L136.106 53.3717C136.15 53.3359 136.205 53.3164 136.262 53.3164C136.319 53.3164 136.374 53.3359 136.418 53.3717L149.57 60.2538L150.88 59.674C152.147 59.105 153.306 58.6004 154.423 58.1816C154.456 58.1677 154.491 58.1606 154.527 58.1606C154.563 58.1607 154.599 58.1679 154.632 58.1819C154.665 58.196 154.695 58.2164 154.72 58.2422C154.744 58.268 154.764 58.2985 154.777 58.3319C154.801 58.3989 154.798 58.4726 154.768 58.5371C154.737 58.6015 154.683 58.6513 154.616 58.6755C153.542 59.1157 152.361 59.5988 151.105 60.1571L149.677 60.8013C149.64 60.8173 149.6 60.8255 149.559 60.8255C149.518 60.8255 149.478 60.8173 149.441 60.8013L136.342 53.9407L105.518 84.8189C105.456 84.844 105.387 84.844 105.325 84.8189ZM250.826 75.0272C250.754 75.0279 250.685 75.001 250.633 74.9521L229.514 53.887L216.415 60.7477C216.381 60.7664 216.342 60.7763 216.303 60.7763C216.263 60.7763 216.225 60.7664 216.19 60.7477L214.762 60.1035C213.291 59.4485 211.96 58.901 210.704 58.4178L209.233 57.8703C209.195 57.8551 209.161 57.8319 209.133 57.8022C209.105 57.7725 209.084 57.7371 209.072 57.6985L204.659 43.5907H161.24L157.44 55.7337C157.43 55.7674 157.413 55.7987 157.391 55.8258C157.369 55.8529 157.341 55.8752 157.31 55.8913C157.279 55.9074 157.245 55.9169 157.21 55.9194C157.175 55.9218 157.14 55.9171 157.107 55.9055C157.04 55.8833 156.985 55.8361 156.953 55.774C156.921 55.7118 156.915 55.6396 156.935 55.5726L160.8 43.2471C160.818 43.1934 160.853 43.1467 160.899 43.114C160.946 43.0812 161.001 43.0639 161.058 43.0646H204.917C204.973 43.0654 205.028 43.0833 205.074 43.1159C205.12 43.1485 205.155 43.1942 205.174 43.2471L209.598 57.4193L210.951 57.9347C212.217 58.4071 213.549 59.0083 215.03 59.6311L216.34 60.2108L229.514 53.3287C229.559 53.2947 229.613 53.2764 229.67 53.2764C229.726 53.2764 229.781 53.2947 229.825 53.3287L250.987 74.587C251.013 74.6121 251.034 74.6421 251.048 74.6753C251.062 74.7085 251.069 74.7442 251.069 74.7803C251.069 74.8164 251.062 74.8521 251.048 74.8853C251.034 74.9185 251.013 74.9485 250.987 74.9735C250.943 75.0155 250.886 75.0419 250.826 75.0487V75.0272Z" fill="#FAFAFA"/>
<path d="M337.244 139.993C340.605 144.287 343.75 148.582 346.821 153.016C349.892 157.45 352.812 161.981 355.571 166.705C356.269 167.876 356.935 169.1 357.611 170.302C358.587 172.124 359.162 174.134 359.297 176.196C359.472 179.327 359.168 182.466 358.395 185.505C357.059 190.969 355.031 196.24 352.361 201.191L346.832 199.044C347.929 194.087 348.722 189.067 349.205 184.013C349.418 181.829 349.346 179.628 348.99 177.463C348.902 176.862 348.678 176.289 348.335 175.788C347.626 174.715 346.939 173.641 346.188 172.567C343.278 168.273 340.197 164.075 337.094 159.855L327.764 147.208L337.244 139.993Z" fill="#FF8B7B"/>
<path d="M346.445 198.421L343.589 203.532L353.552 205.002C353.552 205.002 354.626 200.708 352.124 197.745L346.445 198.421Z" fill="#FF8B7B"/>
<path d="M342.086 210.328L350.385 211.165L353.553 205.002L343.589 203.531L342.086 210.328Z" fill="#FF8B7B"/>
<path d="M369.089 240.819L372.052 225.047C372.396 223.218 373.451 221.599 374.987 220.547C376.523 219.494 378.413 219.093 380.244 219.432L405.12 224.092C403.636 219.122 400.997 214.573 397.418 210.819C393.84 207.064 389.423 204.209 384.53 202.488C379.637 200.766 374.406 200.227 369.265 200.914C364.124 201.601 359.218 203.495 354.949 206.441L242.086 139.638C242.673 132.576 240.961 125.512 237.206 119.502C233.452 113.491 227.855 108.854 221.251 106.283C214.647 103.712 207.388 103.344 200.558 105.233C193.727 107.123 187.69 111.17 183.347 116.77L208.223 121.429C210.05 121.781 211.665 122.84 212.714 124.377C213.764 125.913 214.164 127.802 213.828 129.632L210.864 145.415C210.518 147.243 209.462 148.86 207.927 149.912C206.392 150.964 204.503 151.366 202.672 151.03L177.796 146.359C179.286 151.36 181.946 155.934 185.554 159.703C189.163 163.472 193.616 166.328 198.547 168.035C203.478 169.742 208.744 170.25 213.91 169.519C219.077 168.787 223.995 166.836 228.258 163.828L340.894 230.502C340.245 237.579 341.906 244.677 345.63 250.731C349.354 256.785 354.94 261.469 361.55 264.081C368.16 266.693 375.439 267.093 382.295 265.22C389.151 263.347 395.216 259.302 399.58 253.693L374.704 249.022C372.875 248.673 371.258 247.615 370.206 246.078C369.154 244.541 368.752 242.651 369.089 240.819Z" fill="#407BFF"/>
<path d="M340.979 206.035L249.471 151.875C247.808 150.89 245.661 151.44 244.676 153.104L240.947 159.405C239.962 161.069 240.512 163.215 242.176 164.2L333.684 218.361C335.347 219.345 337.494 218.795 338.479 217.131L342.208 210.83C343.193 209.166 342.642 207.02 340.979 206.035Z" fill="#407BFF"/>
<path opacity="0.2" d="M340.979 206.035L249.471 151.875C247.808 150.89 245.661 151.44 244.676 153.104L240.947 159.405C239.962 161.069 240.512 163.215 242.176 164.2L333.684 218.361C335.347 219.345 337.494 218.795 338.479 217.131L342.208 210.83C343.193 209.166 342.642 207.02 340.979 206.035Z" fill="white"/>
<path d="M299.022 106.624C298.915 107.257 298.507 107.697 298.099 107.697C297.691 107.697 297.433 107.064 297.53 106.441C297.627 105.818 298.045 105.368 298.453 105.421C298.861 105.475 299.119 106.001 299.022 106.624Z" fill="#263238"/>
<path d="M298.56 107.719C297.51 109.523 296.217 111.174 294.717 112.625C295.096 113.006 295.554 113.299 296.058 113.485C296.563 113.67 297.102 113.743 297.637 113.699L298.56 107.719Z" fill="#FF5652"/>
<path d="M301.845 103.499C301.797 103.5 301.75 103.491 301.705 103.472C301.661 103.454 301.621 103.426 301.588 103.392C301.265 103.052 300.865 102.794 300.423 102.639C299.981 102.484 299.508 102.437 299.043 102.501C298.994 102.512 298.944 102.513 298.895 102.504C298.846 102.496 298.799 102.477 298.757 102.45C298.715 102.423 298.679 102.388 298.65 102.347C298.622 102.306 298.602 102.26 298.592 102.211C298.581 102.163 298.58 102.113 298.589 102.065C298.598 102.016 298.616 101.97 298.643 101.929C298.67 101.888 298.705 101.853 298.746 101.825C298.787 101.798 298.834 101.78 298.882 101.771C299.466 101.678 300.063 101.727 300.624 101.914C301.184 102.101 301.692 102.42 302.103 102.844C302.17 102.918 302.207 103.013 302.207 103.113C302.207 103.212 302.17 103.308 302.103 103.381C302.033 103.449 301.942 103.491 301.845 103.499Z" fill="#263238"/>
<path d="M319.99 113.549C318.916 119.325 317.735 129.9 321.772 133.744C321.772 133.744 320.194 139.596 309.468 139.596C297.658 139.596 303.831 133.744 303.831 133.744C310.273 132.209 310.102 127.431 308.985 123.008L319.99 113.549Z" fill="#FF8B7B"/>
<path d="M327.216 138.082C327.086 137.892 326.988 137.681 326.926 137.459C326.024 134.034 322.234 131.361 317.317 131.221C312.131 131.092 306.28 131.715 302.823 134.571C301.298 135.827 302.984 137.663 302.984 137.663L327.216 138.082Z" fill="#407BFF"/>
<path opacity="0.5" d="M327.216 138.082C327.086 137.892 326.988 137.681 326.926 137.459C326.024 134.034 322.234 131.361 317.317 131.221C312.131 131.092 306.28 131.715 302.823 134.571C301.298 135.827 302.984 137.663 302.984 137.663L327.216 138.082Z" fill="white"/>
<path d="M365.127 354.122H365.052C364.894 354.1 364.747 354.029 364.631 353.92C364.516 353.81 364.437 353.667 364.407 353.51C364.37 353.389 364.359 353.26 364.376 353.134C364.392 353.008 364.436 352.887 364.504 352.78C365.105 351.76 367.725 351.223 367.8 351.202C367.836 351.195 367.874 351.198 367.908 351.211C367.942 351.224 367.972 351.247 367.993 351.277C368.011 351.308 368.021 351.343 368.021 351.379C368.021 351.415 368.011 351.45 367.993 351.481C367.596 352.157 366.125 354.122 365.127 354.122ZM367.435 351.663C366.576 351.889 365.18 352.35 364.826 352.962C364.792 353.027 364.775 353.099 364.775 353.172C364.775 353.245 364.792 353.317 364.826 353.381C364.923 353.714 365.095 353.736 365.138 353.746C365.621 353.811 366.759 352.651 367.435 351.663Z" fill="#407BFF"/>
<path d="M366.555 351.706C365.578 351.706 364.483 351.524 364.15 351.051C364.072 350.934 364.035 350.794 364.047 350.654C364.059 350.513 364.118 350.381 364.214 350.278C364.301 350.166 364.41 350.072 364.533 350.002C364.657 349.932 364.793 349.887 364.934 349.87C366.115 349.742 367.886 351.17 367.961 351.234C367.989 351.255 368.01 351.283 368.022 351.315C368.034 351.347 368.037 351.382 368.03 351.415C368.023 351.449 368.007 351.48 367.984 351.505C367.96 351.53 367.93 351.547 367.897 351.556C367.459 351.667 367.007 351.718 366.555 351.706ZM365.116 350.235H364.977C364.885 350.241 364.796 350.267 364.717 350.312C364.637 350.356 364.568 350.418 364.515 350.493C364.365 350.686 364.429 350.783 364.461 350.815C364.762 351.255 366.405 351.427 367.403 351.266C366.741 350.733 365.954 350.378 365.116 350.235Z" fill="#407BFF"/>
<path d="M287.148 380.19C286.138 380.19 285.161 380.051 284.828 379.6C284.744 379.48 284.699 379.338 284.699 379.192C284.699 379.046 284.744 378.903 284.828 378.784C284.894 378.674 284.981 378.578 285.084 378.503C285.188 378.427 285.305 378.373 285.43 378.344C286.74 377.989 289.499 379.557 289.617 379.632C289.65 379.651 289.675 379.68 289.691 379.715C289.706 379.75 289.71 379.788 289.703 379.825C289.695 379.862 289.677 379.896 289.65 379.923C289.624 379.95 289.59 379.968 289.553 379.976C288.758 380.115 287.954 380.187 287.148 380.19ZM285.891 378.666C285.774 378.649 285.655 378.649 285.537 378.666C285.462 378.681 285.39 378.711 285.327 378.756C285.264 378.8 285.211 378.857 285.172 378.923C285.032 379.16 285.086 379.278 285.172 379.342C285.537 379.847 287.534 379.858 289.005 379.654C288.041 379.125 286.984 378.789 285.891 378.666Z" fill="#407BFF"/>
<path d="M289.531 379.976H289.456C288.501 379.546 286.611 377.828 286.761 376.948C286.761 376.733 286.944 376.476 287.459 376.422C287.651 376.398 287.845 376.415 288.03 376.47C288.215 376.526 288.386 376.619 288.533 376.744C289.542 377.571 289.746 379.696 289.757 379.782C289.761 379.815 289.756 379.848 289.743 379.879C289.73 379.909 289.709 379.935 289.682 379.954C289.636 379.98 289.582 379.988 289.531 379.976ZM287.61 376.755H287.491C287.159 376.755 287.137 376.916 287.126 376.959C287.041 377.495 288.329 378.838 289.274 379.417C289.175 378.517 288.8 377.669 288.2 376.991C288.032 376.857 287.825 376.782 287.61 376.776V376.755Z" fill="#407BFF"/>
<path d="M298.206 379.793H290.315L289.531 361.53H297.423L298.206 379.793Z" fill="#FF8B7B"/>
<path d="M374.897 345.769L368.498 350.386L353.402 338.747L359.801 334.141L374.897 345.769Z" fill="#FF8B7B"/>
<path d="M367.585 350.321L373.726 343.879C373.834 343.767 373.977 343.694 374.131 343.675C374.286 343.655 374.442 343.69 374.574 343.772L380.716 347.498C380.863 347.591 380.987 347.715 381.08 347.862C381.173 348.01 381.232 348.176 381.252 348.348C381.273 348.521 381.255 348.696 381.199 348.861C381.143 349.026 381.052 349.176 380.931 349.301C378.783 351.502 377.57 352.458 374.875 355.271C373.211 356.999 368.702 363.076 366.404 365.471C364.106 367.865 361.454 365.9 362.174 364.719C365.395 359.415 366.962 354.154 367.048 351.535C367.079 351.08 367.269 350.65 367.585 350.321Z" fill="#263238"/>
<path d="M290.368 378.88H298.958C299.115 378.879 299.268 378.932 299.391 379.029C299.514 379.127 299.6 379.264 299.634 379.417L301.191 386.428C301.228 386.597 301.227 386.773 301.187 386.941C301.146 387.11 301.069 387.267 300.959 387.401C300.85 387.535 300.711 387.643 300.554 387.716C300.397 387.79 300.226 387.826 300.053 387.824C296.95 387.824 292.462 387.598 288.554 387.598C283.98 387.598 280.04 387.845 274.682 387.845C271.461 387.845 270.549 384.571 271.902 384.27C278.075 382.928 283.111 382.778 288.447 379.492C289.017 379.112 289.683 378.9 290.368 378.88Z" fill="#263238"/>
<path d="M326.207 150.396C327.28 152.383 328.494 154.305 329.664 156.098C331.682 159.2 333.636 161.885 335.032 163.731C336.288 165.395 337.094 166.372 337.094 166.372L352.984 155.539C352.984 155.539 343.321 136.729 335.88 135.526C328.225 134.313 321.214 141.485 326.207 150.396Z" fill="#407BFF"/>
<path opacity="0.5" d="M326.207 150.396C327.28 152.383 328.494 154.305 329.664 156.098C331.682 159.2 333.636 161.885 335.032 163.731C336.288 165.395 337.094 166.372 337.094 166.372L352.984 155.539C352.984 155.539 343.321 136.729 335.88 135.526C328.225 134.313 321.214 141.485 326.207 150.396Z" fill="black"/>
<path d="M329.664 156.098C331.683 159.2 333.637 161.885 335.032 163.731C334.871 160.038 334.109 154.068 331.242 149.516C330.201 150.547 329.782 153.209 329.664 156.098Z" fill="#407BFF"/>
<path opacity="0.6" d="M329.664 156.098C331.683 159.2 333.637 161.885 335.032 163.731C334.871 160.038 334.109 154.068 331.242 149.516C330.201 150.547 329.782 153.209 329.664 156.098Z" fill="black"/>
<path d="M287.824 161.648C287.824 164.332 287.889 167.285 288.039 170.538C288.425 179.385 289.392 190.411 291.26 204.111H333.444C333.734 197.669 329.664 166.04 335.913 135.526C331.247 134.629 326.527 134.034 321.784 133.744C315.812 133.4 309.826 133.4 303.854 133.744C299.761 134.149 295.705 134.867 291.722 135.891C291.722 135.891 287.814 140.326 287.824 161.648Z" fill="#407BFF"/>
<path opacity="0.5" d="M287.824 161.648C287.824 164.332 287.889 167.285 288.039 170.538C288.425 179.385 289.392 190.411 291.26 204.111H333.444C333.734 197.669 329.664 166.04 335.913 135.526C331.247 134.629 326.527 134.034 321.784 133.744C315.812 133.4 309.826 133.4 303.854 133.744C299.761 134.149 295.705 134.867 291.722 135.891C291.722 135.891 287.814 140.326 287.824 161.648Z" fill="black"/>
<path d="M287.824 161.648C287.824 164.332 287.889 167.285 288.039 170.538C292.989 165.707 293.321 155.84 293.321 155.84L287.824 161.648Z" fill="#407BFF"/>
<path opacity="0.6" d="M287.824 161.648C287.824 164.332 287.889 167.285 288.039 170.538C292.989 165.707 293.321 155.84 293.321 155.84L287.824 161.648Z" fill="black"/>
<path d="M296.617 149.398C295.806 150.756 294.909 152.061 293.933 153.306C293.042 154.466 292.151 155.561 291.238 156.645C289.424 158.792 287.48 160.865 285.505 162.872C281.457 166.982 276.975 170.639 272.138 173.781C270.836 174.595 269.492 175.341 268.112 176.014L267.564 176.272L267.296 176.4L266.963 176.54C266.433 176.764 265.887 176.951 265.331 177.098L264.547 177.302L263.796 177.431C263.316 177.514 262.832 177.568 262.346 177.592C259.115 177.699 255.889 177.245 252.812 176.25C247.374 174.558 242.191 172.134 237.405 169.046L239.95 163.678C244.832 165.139 249.807 166.273 254.841 167.07C256.972 167.428 259.144 167.457 261.283 167.156C261.466 167.126 261.646 167.08 261.82 167.017L262.056 166.952L262.228 166.877C262.368 166.877 262.4 166.77 262.486 166.738L263.13 166.362C264.118 165.787 265.075 165.16 265.997 164.483C269.959 161.502 273.642 158.167 277.002 154.519C278.752 152.683 280.437 150.762 282.08 148.85C282.896 147.884 283.69 146.918 284.431 145.941C285.172 144.964 285.934 143.965 286.375 143.278L296.617 149.398Z" fill="#FF8B7B"/>
<path d="M241.11 165.127L235.87 158.9L232.306 168.004C232.306 168.004 236.826 170.152 240.347 168.906L241.11 165.127Z" fill="#FF8B7B"/>
<path d="M228.183 157.536L226.723 164.805L232.306 167.994L235.87 158.889L228.183 157.536Z" fill="#FF8B7B"/>
<path d="M302.94 145.125C302.006 152.64 284.957 168.477 284.957 168.477L269.604 156.301C273.463 150.597 277.974 145.362 283.046 140.701C294.169 131.06 304.068 136.149 302.94 145.125Z" fill="#407BFF"/>
<path opacity="0.5" d="M302.94 145.125C302.006 152.64 284.957 168.477 284.957 168.477L269.604 156.301C273.463 150.597 277.974 145.362 283.046 140.701C294.169 131.06 304.068 136.149 302.94 145.125Z" fill="black"/>
<path d="M289.639 195.855C304.96 195.855 308.46 178.526 309.265 171.086C307.33 158.502 302.848 146.446 296.091 135.655C296.008 135.523 295.958 135.373 295.947 135.217C295.935 135.062 295.961 134.906 296.024 134.763C296.086 134.62 296.183 134.494 296.305 134.397C296.427 134.3 296.571 134.234 296.725 134.206L300.085 133.583C300.277 133.552 300.473 133.577 300.65 133.655C300.827 133.733 300.978 133.861 301.084 134.023C310.306 148.786 313.323 161.305 314.3 167.747H317.049C319.862 161.627 326.057 147.68 325.552 134.614C325.543 134.474 325.565 134.333 325.617 134.203C325.669 134.072 325.749 133.955 325.852 133.859C325.954 133.763 326.077 133.692 326.211 133.65C326.345 133.608 326.487 133.596 326.626 133.615L330.233 133.97C330.465 133.985 330.684 134.086 330.846 134.252C331.008 134.419 331.104 134.639 331.114 134.871C331.64 147.465 324.522 164.934 321.784 170.484C322.718 191.034 334.152 194.588 334.152 194.588C334.434 199.698 334.207 204.823 333.476 209.888C309.265 213.817 297.197 211.423 290.294 208.567C290.83 203.403 289.864 199.784 289.639 195.855Z" fill="#407BFF"/>
<path opacity="0.3" d="M289.639 195.855C304.96 195.855 308.46 178.526 309.265 171.086C307.33 158.502 302.848 146.446 296.091 135.655C296.008 135.523 295.958 135.373 295.947 135.217C295.935 135.062 295.961 134.906 296.024 134.763C296.086 134.62 296.183 134.494 296.305 134.397C296.427 134.3 296.571 134.234 296.725 134.206L300.085 133.583C300.277 133.552 300.473 133.577 300.65 133.655C300.827 133.733 300.978 133.861 301.084 134.023C310.306 148.786 313.323 161.305 314.3 167.747H317.049C319.862 161.627 326.057 147.68 325.552 134.614C325.543 134.474 325.565 134.333 325.617 134.203C325.669 134.072 325.749 133.955 325.852 133.859C325.954 133.763 326.077 133.692 326.211 133.65C326.345 133.608 326.487 133.596 326.626 133.615L330.233 133.97C330.465 133.985 330.684 134.086 330.846 134.252C331.008 134.419 331.104 134.639 331.114 134.871C331.64 147.465 324.522 164.934 321.784 170.484C322.718 191.034 334.152 194.588 334.152 194.588C334.434 199.698 334.207 204.823 333.476 209.888C309.265 213.817 297.197 211.423 290.294 208.567C290.83 203.403 289.864 199.784 289.639 195.855Z" fill="black"/>
<path d="M289.531 361.53L289.939 370.946H297.831L297.423 361.53H289.531Z" fill="#FF5652"/>
<path d="M359.812 334.141L353.413 338.758L361.197 344.749L367.596 340.132L359.812 334.141Z" fill="#FF5652"/>
<path d="M320.195 108.578C318.509 116.222 317.908 120.785 313.388 124.135C306.591 129.181 297.616 124.135 296.982 116.158C296.413 108.964 299.258 97.6693 307.3 95.7582C309.07 95.3486 310.915 95.3949 312.662 95.8927C314.409 96.3904 316.002 97.3234 317.29 98.6043C318.579 99.8852 319.521 101.472 320.029 103.216C320.537 104.961 320.594 106.805 320.195 108.578Z" fill="#FF8B7B"/>
<path d="M327.012 96.7138C333.723 96.8963 330.963 100.429 327.603 102.372C327.603 102.372 331.479 104.229 329.482 108.664C326.454 115.395 320.656 122.793 314.74 122.385C307.375 121.88 305.282 113.871 305.55 105.969C301.663 102.308 301.008 100.289 300.407 95.8871C299.194 87.1583 304.67 82.3591 327.012 96.7138Z" fill="#263238"/>
<path d="M318.369 82.0048C322.963 83.1831 326.901 86.1377 329.317 90.2187C331.733 94.2998 332.43 99.1733 331.253 103.768L296.585 94.9208C297.166 92.6417 298.191 90.4994 299.6 88.6165C301.01 86.7337 302.777 85.1471 304.8 83.9475C306.823 82.748 309.063 81.959 311.391 81.6256C313.72 81.2923 316.091 81.4211 318.369 82.0048Z" fill="#407BFF"/>
<path opacity="0.5" d="M318.369 82.0048C322.963 83.1831 326.901 86.1377 329.317 90.2187C331.733 94.2998 332.43 99.1733 331.253 103.768L296.585 94.9208C297.166 92.6417 298.191 90.4994 299.6 88.6165C301.01 86.7337 302.777 85.1471 304.8 83.9475C306.823 82.748 309.063 81.959 311.391 81.6256C313.72 81.2923 316.091 81.4211 318.369 82.0048Z" fill="white"/>
<path d="M325.219 103.789C324.979 103.793 324.742 103.74 324.526 103.636C324.31 103.532 324.121 103.38 323.974 103.19C323.827 103.001 323.726 102.78 323.68 102.544C323.633 102.309 323.642 102.066 323.705 101.835C324.187 99.8852 324.254 97.8557 323.9 95.8784C323.547 93.901 322.782 92.0201 321.654 90.3578C319.242 86.7278 315.55 84.1401 311.315 83.1106C310.912 83.0081 310.566 82.7498 310.354 82.3924C310.141 82.035 310.08 81.6078 310.182 81.2049C310.285 80.802 310.543 80.4563 310.9 80.2439C311.258 80.0314 311.685 79.9697 312.088 80.0722C317.086 81.3001 321.437 84.3672 324.274 88.6614C325.64 90.6853 326.565 92.9735 326.991 95.3779C327.416 97.7823 327.332 100.249 326.743 102.619C326.655 102.956 326.457 103.253 326.181 103.465C325.905 103.677 325.567 103.791 325.219 103.789Z" fill="#407BFF"/>
<path opacity="0.3" d="M325.219 103.789C324.979 103.793 324.742 103.74 324.526 103.636C324.31 103.532 324.121 103.38 323.974 103.19C323.827 103.001 323.726 102.78 323.68 102.544C323.633 102.309 323.642 102.066 323.705 101.835C324.187 99.8852 324.254 97.8557 323.9 95.8784C323.547 93.901 322.782 92.0201 321.654 90.3578C319.242 86.7278 315.55 84.1401 311.315 83.1106C310.912 83.0081 310.566 82.7498 310.354 82.3924C310.141 82.035 310.08 81.6078 310.182 81.2049C310.285 80.802 310.543 80.4563 310.9 80.2439C311.258 80.0314 311.685 79.9697 312.088 80.0722C317.086 81.3001 321.437 84.3672 324.274 88.6614C325.64 90.6853 326.565 92.9735 326.991 95.3779C327.416 97.7823 327.332 100.249 326.743 102.619C326.655 102.956 326.457 103.253 326.181 103.465C325.905 103.677 325.567 103.791 325.219 103.789Z" fill="white"/>
<path d="M291.786 95.3824L332.585 105.797C333.009 105.904 333.458 105.839 333.835 105.616C334.211 105.393 334.483 105.029 334.592 104.605C334.7 104.179 334.635 103.729 334.412 103.35C334.189 102.972 333.825 102.698 333.4 102.587L292.602 92.1722C292.175 92.0648 291.722 92.131 291.344 92.3564C290.966 92.5818 290.692 92.948 290.583 93.3747C290.53 93.5855 290.519 93.8047 290.551 94.0197C290.583 94.2348 290.656 94.4414 290.768 94.6279C290.88 94.8144 291.027 94.977 291.202 95.1065C291.376 95.236 291.575 95.3297 291.786 95.3824Z" fill="#407BFF"/>
<path opacity="0.3" d="M291.786 95.3824L332.585 105.797C333.009 105.904 333.458 105.839 333.835 105.616C334.211 105.393 334.483 105.029 334.592 104.605C334.7 104.179 334.635 103.729 334.412 103.35C334.189 102.972 333.825 102.698 333.4 102.587L292.602 92.1722C292.175 92.0648 291.722 92.131 291.344 92.3564C290.966 92.5818 290.692 92.948 290.583 93.3747C290.53 93.5855 290.519 93.8047 290.551 94.0197C290.583 94.2348 290.656 94.4414 290.768 94.6279C290.88 94.8144 291.027 94.977 291.202 95.1065C291.376 95.236 291.575 95.3297 291.786 95.3824Z" fill="white"/>
<path d="M309.576 107.858C309.376 109.793 308.537 111.606 307.192 113.012C305.41 114.848 303.649 113.613 303.424 111.294C303.22 109.211 303.907 105.743 306.044 104.777C308.18 103.811 309.801 105.528 309.576 107.858Z" fill="#FF8B7B"/>
<path d="M306.205 204.111C306.205 204.111 305.292 260.242 312.346 282.252C323.523 317.113 357.278 345.35 357.278 345.35L369.346 336.643C369.346 336.643 341.238 312.786 336.084 283.444C331.457 257.064 333.422 225.681 333.422 204.133L306.205 204.111Z" fill="#407BFF"/>
<path opacity="0.3" d="M306.205 204.111C306.205 204.111 305.292 260.242 312.346 282.252C323.523 317.113 357.278 345.35 357.278 345.35L369.346 336.643C369.346 336.643 341.238 312.786 336.084 283.444C331.457 257.064 333.422 225.681 333.422 204.133L306.205 204.111Z" fill="black"/>
<path d="M314.075 213.753C315.567 223.867 310.296 252.028 308.47 261.251C306.559 244.008 306.205 223.555 306.173 212.389C310.038 209.769 313.388 209.093 314.075 213.753Z" fill="#407BFF"/>
<path opacity="0.4" d="M314.075 213.753C315.567 223.867 310.296 252.028 308.47 261.251C306.559 244.008 306.205 223.555 306.173 212.389C310.038 209.769 313.388 209.093 314.075 213.753Z" fill="black"/>
<path d="M352.114 342.806C352.06 342.806 357.074 345.758 357.074 345.758L370.248 336.246L365.867 332.885L352.114 342.806Z" fill="#407BFF"/>
<path opacity="0.4" d="M352.114 342.806C352.06 342.806 357.074 345.758 357.074 345.758L370.248 336.246L365.867 332.885L352.114 342.806Z" fill="white"/>
<path d="M291.238 204.111C291.238 204.111 279.353 254.466 278.515 278.515C277.581 305.496 286.997 369.121 286.997 369.121H300.375C300.375 369.121 302.028 305.002 302.619 280.427C303.263 253.639 318.992 204.111 318.992 204.111H291.238Z" fill="#407BFF"/>
<path opacity="0.3" d="M291.238 204.111C291.238 204.111 279.353 254.466 278.515 278.515C277.581 305.496 286.997 369.121 286.997 369.121H300.375C300.375 369.121 302.028 305.002 302.619 280.427C303.263 253.639 318.992 204.111 318.992 204.111H291.238Z" fill="black"/>
<path d="M284.421 363.796C284.367 363.796 285.183 369.346 285.183 369.346H301.449L301.889 364.397L284.421 363.796Z" fill="#407BFF"/>
<path opacity="0.4" d="M284.421 363.796C284.367 363.796 285.183 369.346 285.183 369.346H301.449L301.889 364.397L284.421 363.796Z" fill="white"/>
</svg>
